<svg width="16" height="16" viewBox="0 0 16 16" fill="none" xmlns="http://www.w3.org/2000/svg">
<path d="M8.05484 8.47073C8.05484 7.08461 9.17852 5.96094 10.5646 5.96094C11.9508 5.96094 13.0744 7.08464 13.0744 8.47073C13.0744 9.85688 11.9507 10.9805 10.5646 10.9805C9.17849 10.9805 8.05484 9.85685 8.05484 8.47073Z" fill="#00BCFF"/>
<path d="M3.03525 13.4894C3.03525 12.1033 4.15892 10.9796 5.54504 10.9796L6.88254 10.2734L8.05484 10.9796V13.4894C8.05484 14.8755 6.93116 15.9992 5.54504 15.9992C4.15892 15.9992 3.03525 14.8755 3.03525 13.4894Z" fill="#00CF7F"/>
<path d="M8.05485 0.941406L6.68915 3.31405L8.05485 5.96099H10.5294C11.9156 5.96099 13.0392 4.83732 13.0392 3.4512C13.0392 2.06508 11.9156 0.941406 10.5294 0.941406H8.05485Z" fill="#FF7361"/>
<path d="M3 3.4512C3 4.83732 4.12368 5.96099 5.50979 5.96099L6.84118 6.47523L8.05479 5.96099V0.941406H5.50976C4.12368 0.941406 3 2.06508 3 3.4512Z" fill="#FF4D12"/>
<path d="M3.03525 8.47076C3.03525 9.85691 4.15892 10.9806 5.54504 10.9806H8.05484V5.96094H5.54504C4.15892 5.96094 3.03525 7.08464 3.03525 8.47076Z" fill="#B659FF"/>
</svg>
