<svg width="100" height="22" viewBox="0 0 100 22" fill="none" xmlns="http://www.w3.org/2000/svg">
<path d="M0.735706 19.8198V19.9948H0.910706H1.33926H1.76781H1.94281V19.8198V16.7664V13.8879H6.08907H10.4103H10.5853V13.7129V13.3022V12.8915V12.7165H10.4103H6.08907H1.94281V9.07025V5.42398H6.08907H10.4103H10.5853V5.24898V4.82042V4.39187V4.21687H10.4103H6.08907H1.94281V2.5348V0.677734V0.502734H1.76781H1.33926H0.910706H0.735706V0.677734V10.2488V19.8198ZM18.0564 4.65972V8.4667H13.9102H9.58892H9.41392V8.6417V9.07025V9.4988V9.6738H9.58892H13.9102H18.0564V14.6593V19.8198V19.9948H18.2314H18.66H19.0885H19.2635V19.8198V10.2488V0.677734V0.502734H19.0885H18.66H18.2314H18.0564V0.677734V4.65972Z" fill="#1F1F1F" stroke="#1F1F1F" stroke-width="0.35"/>
<path d="M32.3187 17.7501H30.3588L35.6786 3.4707H38.0585L43.3783 17.7501H41.4184L39.8584 13.5703H33.8987L32.3187 17.7501ZM34.4587 12.0104H39.2985L36.8986 5.17063H36.8386L34.4587 12.0104Z" fill="black"/>
<path d="M43.6088 17.7501V7.41054H45.4087V9.35046C45.9487 8.17051 46.9086 7.17055 48.5086 7.17055C51.2284 7.17055 52.2484 8.95048 52.2484 11.0504V17.7501H50.4485V11.2304C50.4485 9.41046 49.6685 8.69049 48.2686 8.69049C46.7486 8.69049 45.4087 9.97044 45.4087 12.6703V17.7501H43.6088Z" fill="black"/>
<path d="M57.8615 17.9901C54.7216 17.9901 52.6817 15.6302 52.6817 12.5903C52.6817 9.55046 54.7216 7.17055 57.8615 7.17055C61.0013 7.17055 63.0412 9.55046 63.0412 12.5903C63.0412 15.6302 61.0013 17.9901 57.8615 17.9901ZM54.4816 12.5903C54.4816 14.7102 55.8415 16.4702 57.8615 16.4702C59.8814 16.4702 61.2413 14.7102 61.2413 12.5903C61.2413 10.4504 59.8814 8.69049 57.8615 8.69049C55.8415 8.69049 54.4816 10.4504 54.4816 12.5903Z" fill="black"/>
<path d="M63.5619 17.7501V7.41054H65.3618V9.17047C65.5618 8.23051 66.5817 7.17055 67.9817 7.17055C69.6616 7.17055 70.6216 7.81053 71.1015 9.23047C71.7415 7.83053 72.6815 7.17055 74.0614 7.17055C76.5813 7.17055 77.5613 8.95048 77.5613 11.0504V17.7501H75.7614V11.2304C75.7614 9.41046 75.0214 8.69049 73.8214 8.69049C72.5015 8.69049 71.4415 9.97044 71.4415 12.6703V17.7501H69.6416V11.2304C69.6416 9.41046 69.1416 8.69049 67.7417 8.69049C65.9018 8.69049 65.3618 10.5104 65.3618 12.6703V17.7501H63.5619Z" fill="black"/>
<path d="M78.6256 10.5304C78.8456 9.03048 80.1056 7.15055 82.8054 7.15055C86.6053 7.15055 86.9653 9.61045 86.9653 11.2104V15.6502C86.9653 16.4302 87.0453 17.2501 87.1253 17.7501H85.2053C85.1654 17.2501 85.1653 16.8302 85.1653 16.2502V15.8502H85.1454C84.9054 16.6502 84.0454 17.9901 81.7455 17.9901C79.2656 17.9901 78.1256 16.4102 78.1256 14.9302C78.1256 12.0104 81.8055 11.9104 83.3654 11.6304C84.7254 11.3904 85.1653 11.0104 85.1653 10.1504C85.1653 9.29047 84.3454 8.67049 82.8654 8.67049C81.6055 8.67049 80.6655 9.41046 80.4255 10.5304H78.6256ZM79.9056 14.9302C79.9056 15.9102 80.8055 16.5302 82.0655 16.5302C83.6454 16.5302 85.2053 15.5102 85.2053 12.9503L85.1854 11.5104C84.9854 12.1903 84.5454 12.7903 82.3055 13.1903C80.8055 13.4503 79.9056 13.8903 79.9056 14.9302Z" fill="black"/>
<path d="M88.0851 3.4707H89.885V17.7501H88.0851V3.4707Z" fill="black"/>
<path d="M91.8404 7.41054L95.1203 15.9702H95.1403L98.0801 7.41054H100L95.3202 19.75C94.8603 20.99 94.1003 21.75 92.7004 21.75H91.3004V20.23H92.4404C93.4403 20.23 93.6003 19.67 93.9003 18.9301L94.2603 18.0301C92.8204 14.4903 91.3604 10.9504 89.9205 7.41054H91.8404Z" fill="black"/>
</svg>
