<svg width="867" height="720" viewBox="0 0 867 720" fill="none" xmlns="http://www.w3.org/2000/svg">
<path d="M1 314V350M1 719.5V433M1 433H94.5M1 433V350M1 350H94.5M84.5 391H174V314V719.5" stroke="#E9E9E9" stroke-dasharray="6 6"/>
<path d="M347 314V350M347 602.5V433M347 433H440.5M347 433V350M347 350H440.5M430.5 391H520V314V498.5" stroke="#E9E9E9" stroke-dasharray="6 6"/>
<path d="M520 121V157M520 313.5V240M520 240H613.5M520 240V157M520 157H613.5M603.5 198H693V121V305.5" stroke="#E9E9E9" stroke-dasharray="6 6"/>
<path d="M174 0V157M174 313.5V240M174 240H267.5M174 240V157M174 157H267.5M257.5 198H347V121V305.5" stroke="#E9E9E9" stroke-dasharray="6 6"/>
<path d="M693 314V350M693 506.5V433M693 433H786.5M693 433V350M693 350H786.5M776.5 391H866V314V498.5" stroke="#E9E9E9" stroke-dasharray="6 6"/>
<path d="M347 335V349.75M347 364.5V349.75M347 349.75L361 350M604.5 198H631M520 225V240H534.5M174 224.5V259M825.5 391H865" stroke="#8EBFFB"/>
</svg>
