<svg width="657" height="374" viewBox="0 0 657 374" fill="none" xmlns="http://www.w3.org/2000/svg">
<path d="M656.5 186.999L335.5 186.999M335.5 186.999L438.5 137.5L656.5 138M335.5 186.999L226.5 237.5L172.25 237.5M335.5 186.999L438.5 237.5L634.5 237.5M335.5 186.999L415.5 90.0001L522.5 90.0001L544 45.0001M335.5 186.999L392 284.5L634.5 284.5M335.5 186.999L226.5 137.5L67.5 137.5M335.5 186.999L273.5 89L193 90.0001L193 45.0001M335.5 186.999L292.5 284.5L205 285.5M652.5 7.5791e-05L565.5 7.58146e-05L544 45.0001M544 45.0001L656.5 45.0001M634.5 237.5L634.5 209L656.5 209M634.5 237.5L634.5 284.5M634.5 326.5L654 372M634.5 326.5L634.5 284.5M634.5 326.5L612 326.5M560.5 374.5L589.5 326.5L612 326.5M612 326.5L612 374.5M67.5 137.5L67.5 -0.999994M67.5 137.5L102.5 89.5L147.75 67.25M193 7.57938e-05L193 45.0001M193 45.0001L147.75 67.25M147.75 67.25L125.5 45.0001L125.5 7.5734e-05M118 237.5L172.25 237.5M172.25 237.5L172.25 258.5L205 258.5L205 285.5M205 285.5L136.25 309.25M205 285.5L205 326L247.5 326M0.999967 374.5L33.5 333L67.5 333L136.25 309.25M136.25 309.25L136.25 374.5M247.5 326L247.5 374.5M247.5 326L292.5 326L328.5 374.5" stroke="#E9E9E9" stroke-linecap="round" stroke-dasharray="6 6"/>
<path d="M310.5 244L317.5 227.5" stroke="#8EBFFB" stroke-linecap="round"/>
<path d="M387.501 276.502L377.5 259.504" stroke="#8EBFFB" stroke-linecap="round"/>
<path d="M542.5 48L544 44.9998M545.5 41.9996L544 44.9998M544 44.9998L560 44.9998" stroke="#8EBFFB" stroke-linecap="round"/>
<path d="M135 54.498L125.505 44.9874L125.505 41.4892" stroke="#8EBFFB" stroke-linecap="round"/>
<path d="M142.676 307L158 301.499" stroke="#8EBFFB" stroke-linecap="round"/>
<g filter="url(#filter0_d_2273_1184)">
<rect x="102" y="71" width="172" height="37" rx="4" fill="#F5F5F5" shape-rendering="crispEdges"/>
<rect x="102.5" y="71.5" width="171" height="36" rx="3.5" stroke="#EEEEEE" shape-rendering="crispEdges"/>
<path d="M118.12 85.432H119.32L120.82 91.84L121.036 92.788H121.048L121.264 91.84L122.716 85.432H124.276L125.68 91.84L125.896 92.8H125.908L126.136 91.84L127.696 85.432H128.896L127.216 91.84L126.652 94H125.116L123.508 86.572H123.496L122.284 91.84L121.792 94H120.268L119.728 91.84L118.12 85.432ZM129.544 94V85.432H130.624V88.96C130.948 88.252 131.524 87.652 132.484 87.652C134.116 87.652 134.728 88.72 134.728 89.98V94H133.648V90.088C133.648 88.996 133.18 88.564 132.34 88.564C131.428 88.564 130.624 89.332 130.624 90.952V94H129.544ZM135.96 89.668C136.092 88.768 136.848 87.64 138.468 87.64C140.748 87.64 140.964 89.116 140.964 90.076V92.74C140.964 93.208 141.012 93.7 141.06 94H139.908C139.884 93.7 139.884 93.448 139.884 93.1V92.86H139.872C139.728 93.34 139.212 94.144 137.832 94.144C136.344 94.144 135.66 93.196 135.66 92.308C135.66 90.556 137.868 90.496 138.804 90.328C139.62 90.184 139.884 89.956 139.884 89.44C139.884 88.924 139.392 88.552 138.504 88.552C137.748 88.552 137.184 88.996 137.04 89.668H135.96ZM136.728 92.308C136.728 92.896 137.268 93.268 138.024 93.268C138.972 93.268 139.908 92.656 139.908 91.12L139.896 90.256C139.776 90.664 139.512 91.024 138.168 91.264C137.268 91.42 136.728 91.684 136.728 92.308ZM143.544 92.26C143.544 92.812 143.856 93.112 144.336 93.112H144.768V94H144.228C143.028 94 142.488 93.292 142.488 92.332V88.684H141.564V87.796H142.488V86.344L143.544 85.864V87.796H144.732V88.684H143.544V92.26ZM151.323 87.652C153.075 87.652 154.155 88.96 154.155 90.88C154.155 92.8 153.075 94.144 151.323 94.144C150.195 94.144 149.415 93.4 149.187 92.764H149.175V96.4H148.095V87.796H149.175V89.056H149.187C149.415 88.408 150.195 87.652 151.323 87.652ZM149.139 90.88C149.139 92.104 149.763 93.22 151.107 93.22C152.415 93.22 153.075 92.224 153.075 90.88C153.075 89.536 152.379 88.564 151.107 88.564C149.763 88.564 149.139 89.668 149.139 90.88ZM156.142 87.796V89.044C156.454 88.132 157.054 87.772 157.99 87.772V88.804C157.942 88.804 157.75 88.816 157.594 88.84C156.874 88.948 156.142 89.272 156.142 91.072V94H155.062V87.796H156.142ZM161.46 94.144C159.576 94.144 158.352 92.728 158.352 90.904C158.352 89.08 159.576 87.652 161.46 87.652C163.344 87.652 164.568 89.08 164.568 90.904C164.568 92.728 163.344 94.144 161.46 94.144ZM159.432 90.904C159.432 92.176 160.248 93.232 161.46 93.232C162.672 93.232 163.488 92.176 163.488 90.904C163.488 89.62 162.672 88.564 161.46 88.564C160.248 88.564 159.432 89.62 159.432 90.904ZM167.929 87.652C169.057 87.652 169.837 88.408 170.065 89.056H170.077V85.432H171.157V94H170.077V92.764H170.065C169.837 93.4 169.057 94.144 167.929 94.144C166.177 94.144 165.097 92.8 165.097 90.88C165.097 88.96 166.177 87.652 167.929 87.652ZM166.177 90.88C166.177 92.224 166.837 93.22 168.145 93.22C169.489 93.22 170.113 92.104 170.113 90.88C170.113 89.668 169.489 88.564 168.145 88.564C166.873 88.564 166.177 89.536 166.177 90.88ZM172.4 91.816V87.796H173.48V91.708C173.48 92.8 173.948 93.232 174.788 93.232C175.7 93.232 176.504 92.464 176.504 90.844V87.796H177.584V94H176.504V92.836C176.18 93.544 175.604 94.144 174.644 94.144C173.012 94.144 172.4 93.076 172.4 91.816ZM184.42 92.104C184.072 93.4 183.172 94.144 181.672 94.144C179.74 94.144 178.492 92.776 178.492 90.904C178.492 89.032 179.74 87.652 181.672 87.652C183.256 87.652 184.108 88.528 184.372 89.656H183.292C183.064 89.092 182.644 88.54 181.636 88.54C180.376 88.54 179.572 89.572 179.572 90.904C179.572 92.224 180.376 93.244 181.636 93.244C182.536 93.244 183.052 92.836 183.328 92.104H184.42ZM186.717 92.26C186.717 92.812 187.029 93.112 187.509 93.112H187.941V94H187.401C186.201 94 185.661 93.292 185.661 92.332V88.684H184.737V87.796H185.661V86.344L186.717 85.864V87.796H187.905V88.684H186.717V92.26ZM192.246 89.668C192.174 88.864 191.502 88.564 190.878 88.564C190.29 88.564 189.702 88.9 189.702 89.428C189.702 89.908 190.182 90.184 190.722 90.316L191.538 90.52C192.474 90.748 193.422 91.192 193.422 92.224C193.422 93.544 192.042 94.144 190.962 94.144C189.918 94.144 188.55 93.664 188.442 92.128H189.522C189.666 92.92 190.158 93.232 190.998 93.232C191.61 93.232 192.342 93.016 192.342 92.296C192.342 91.768 191.826 91.588 191.238 91.444L190.374 91.228C189.45 91 188.622 90.436 188.622 89.476C188.622 88.312 189.822 87.652 190.914 87.652C192.126 87.652 193.194 88.3 193.314 89.668H192.246ZM197.947 86.632H196.795V85.432H197.947V86.632ZM196.771 94V87.796H197.851V94H196.771ZM199.238 94V87.796H200.318V88.96C200.642 88.252 201.218 87.652 202.178 87.652C203.81 87.652 204.422 88.72 204.422 89.98V94H203.342V90.088C203.342 88.996 202.874 88.564 202.034 88.564C201.122 88.564 200.318 89.332 200.318 90.952V94H199.238ZM209.086 89.668C209.014 88.864 208.342 88.564 207.718 88.564C207.13 88.564 206.542 88.9 206.542 89.428C206.542 89.908 207.022 90.184 207.562 90.316L208.378 90.52C209.314 90.748 210.262 91.192 210.262 92.224C210.262 93.544 208.882 94.144 207.802 94.144C206.758 94.144 205.39 93.664 205.282 92.128H206.362C206.506 92.92 206.998 93.232 207.838 93.232C208.45 93.232 209.182 93.016 209.182 92.296C209.182 91.768 208.666 91.588 208.078 91.444L207.214 91.228C206.29 91 205.462 90.436 205.462 89.476C205.462 88.312 206.662 87.652 207.754 87.652C208.966 87.652 210.034 88.3 210.154 89.668H209.086ZM214.396 87.652C216.148 87.652 217.228 88.96 217.228 90.88C217.228 92.8 216.148 94.144 214.396 94.144C213.268 94.144 212.488 93.4 212.26 92.764H212.248V96.4H211.168V87.796H212.248V89.056H212.26C212.488 88.408 213.268 87.652 214.396 87.652ZM212.212 90.88C212.212 92.104 212.836 93.22 214.18 93.22C215.488 93.22 216.148 92.224 216.148 90.88C216.148 89.536 215.452 88.564 214.18 88.564C212.836 88.564 212.212 89.668 212.212 90.88ZM219.312 86.632H218.16V85.432H219.312V86.632ZM218.136 94V87.796H219.216V94H218.136ZM221.683 87.796V89.044C221.995 88.132 222.595 87.772 223.531 87.772V88.804C223.483 88.804 223.291 88.816 223.135 88.84C222.415 88.948 221.683 89.272 221.683 91.072V94H220.603V87.796H221.683ZM229.713 92.152C229.365 93.472 228.321 94.144 226.941 94.144C225.105 94.144 223.893 92.812 223.893 90.868C223.893 88.996 225.165 87.652 226.917 87.652C229.101 87.652 229.785 89.404 229.809 91V91.192H224.937C225.021 92.488 225.813 93.244 226.917 93.244C227.745 93.244 228.441 92.92 228.657 92.152H229.713ZM224.949 90.328H228.717C228.621 89.248 228.021 88.54 226.917 88.54C225.801 88.54 225.093 89.26 224.949 90.328ZM233.687 87.796L235.655 92.932H235.667L237.431 87.796H238.583L235.775 95.2C235.499 95.944 235.043 96.4 234.203 96.4H233.363V95.488H234.047C234.647 95.488 234.743 95.152 234.923 94.708L235.139 94.168C234.275 92.044 233.399 89.92 232.535 87.796H233.687ZM241.785 94.144C239.901 94.144 238.677 92.728 238.677 90.904C238.677 89.08 239.901 87.652 241.785 87.652C243.669 87.652 244.893 89.08 244.893 90.904C244.893 92.728 243.669 94.144 241.785 94.144ZM239.757 90.904C239.757 92.176 240.573 93.232 241.785 93.232C242.997 93.232 243.813 92.176 243.813 90.904C243.813 89.62 242.997 88.564 241.785 88.564C240.573 88.564 239.757 89.62 239.757 90.904ZM245.757 91.816V87.796H246.837V91.708C246.837 92.8 247.305 93.232 248.145 93.232C249.057 93.232 249.861 92.464 249.861 90.844V87.796H250.941V94H249.861V92.836C249.537 93.544 248.961 94.144 248.001 94.144C246.369 94.144 245.757 93.076 245.757 91.816ZM251.928 87.856C251.928 86.284 253.008 85.228 254.544 85.228C256.08 85.228 257.076 86.224 257.076 87.628C257.076 88.624 256.536 89.164 256.044 89.68C255.552 90.184 255.024 90.676 255.024 91.444V91.744H253.944V91.348C253.944 90.34 254.484 89.788 255.012 89.284C255.504 88.804 255.996 88.372 255.996 87.628C255.996 86.752 255.444 86.14 254.544 86.14C253.644 86.14 253.008 86.812 253.008 87.856V88.048H251.928V87.856ZM253.896 94V92.56H255.06V94H253.896Z" fill="#404040"/>
</g>
<g filter="url(#filter1_d_2273_1184)">
<rect x="55" y="119" width="172" height="37" rx="4" fill="#F5F5F5" shape-rendering="crispEdges"/>
<rect x="55.5" y="119.5" width="171" height="36" rx="3.5" stroke="#EEEEEE" shape-rendering="crispEdges"/>
<g filter="url(#filter2_f_2273_1184)">
<path d="M71.12 133.432H72.32L73.82 139.84L74.036 140.788H74.048L74.264 139.84L75.716 133.432H77.276L78.68 139.84L78.896 140.8H78.908L79.136 139.84L80.696 133.432H81.896L80.216 139.84L79.652 142H78.116L76.508 134.572H76.496L75.284 139.84L74.792 142H73.268L72.728 139.84L71.12 133.432ZM82.5436 142V133.432H83.6236V136.96C83.9476 136.252 84.5236 135.652 85.4836 135.652C87.1156 135.652 87.7276 136.72 87.7276 137.98V142H86.6476V138.088C86.6476 136.996 86.1796 136.564 85.3396 136.564C84.4276 136.564 83.6236 137.332 83.6236 138.952V142H82.5436ZM88.9596 137.668C89.0916 136.768 89.8476 135.64 91.4676 135.64C93.7476 135.64 93.9636 137.116 93.9636 138.076V140.74C93.9636 141.208 94.0116 141.7 94.0596 142H92.9076C92.8836 141.7 92.8836 141.448 92.8836 141.1V140.86H92.8716C92.7276 141.34 92.2116 142.144 90.8316 142.144C89.3436 142.144 88.6596 141.196 88.6596 140.308C88.6596 138.556 90.8676 138.496 91.8036 138.328C92.6196 138.184 92.8836 137.956 92.8836 137.44C92.8836 136.924 92.3916 136.552 91.5036 136.552C90.7476 136.552 90.1836 136.996 90.0396 137.668H88.9596ZM89.7276 140.308C89.7276 140.896 90.2676 141.268 91.0236 141.268C91.9716 141.268 92.9076 140.656 92.9076 139.12L92.8956 138.256C92.7756 138.664 92.5116 139.024 91.1676 139.264C90.2676 139.42 89.7276 139.684 89.7276 140.308ZM96.5435 140.26C96.5435 140.812 96.8555 141.112 97.3355 141.112H97.7675V142H97.2275C96.0275 142 95.4875 141.292 95.4875 140.332V136.684H94.5635V135.796H95.4875V134.344L96.5435 133.864V135.796H97.7315V136.684H96.5435V140.26ZM104.323 135.652C106.075 135.652 107.155 136.96 107.155 138.88C107.155 140.8 106.075 142.144 104.323 142.144C103.195 142.144 102.415 141.4 102.187 140.764H102.175V144.4H101.095V135.796H102.175V137.056H102.187C102.415 136.408 103.195 135.652 104.323 135.652ZM102.139 138.88C102.139 140.104 102.763 141.22 104.107 141.22C105.415 141.22 106.075 140.224 106.075 138.88C106.075 137.536 105.379 136.564 104.107 136.564C102.763 136.564 102.139 137.668 102.139 138.88ZM109.142 135.796V137.044C109.454 136.132 110.054 135.772 110.99 135.772V136.804C110.942 136.804 110.75 136.816 110.594 136.84C109.874 136.948 109.142 137.272 109.142 139.072V142H108.062V135.796H109.142ZM114.46 142.144C112.576 142.144 111.352 140.728 111.352 138.904C111.352 137.08 112.576 135.652 114.46 135.652C116.344 135.652 117.568 137.08 117.568 138.904C117.568 140.728 116.344 142.144 114.46 142.144ZM112.432 138.904C112.432 140.176 113.248 141.232 114.46 141.232C115.672 141.232 116.488 140.176 116.488 138.904C116.488 137.62 115.672 136.564 114.46 136.564C113.248 136.564 112.432 137.62 112.432 138.904ZM120.929 135.652C122.057 135.652 122.837 136.408 123.065 137.056H123.077V133.432H124.157V142H123.077V140.764H123.065C122.837 141.4 122.057 142.144 120.929 142.144C119.177 142.144 118.097 140.8 118.097 138.88C118.097 136.96 119.177 135.652 120.929 135.652ZM119.177 138.88C119.177 140.224 119.837 141.22 121.145 141.22C122.489 141.22 123.113 140.104 123.113 138.88C123.113 137.668 122.489 136.564 121.145 136.564C119.873 136.564 119.177 137.536 119.177 138.88ZM125.4 139.816V135.796H126.48V139.708C126.48 140.8 126.948 141.232 127.788 141.232C128.7 141.232 129.504 140.464 129.504 138.844V135.796H130.584V142H129.504V140.836C129.18 141.544 128.604 142.144 127.644 142.144C126.012 142.144 125.4 141.076 125.4 139.816ZM137.42 140.104C137.072 141.4 136.172 142.144 134.672 142.144C132.74 142.144 131.492 140.776 131.492 138.904C131.492 137.032 132.74 135.652 134.672 135.652C136.256 135.652 137.108 136.528 137.372 137.656H136.292C136.064 137.092 135.644 136.54 134.636 136.54C133.376 136.54 132.572 137.572 132.572 138.904C132.572 140.224 133.376 141.244 134.636 141.244C135.536 141.244 136.052 140.836 136.328 140.104H137.42ZM139.717 140.26C139.717 140.812 140.029 141.112 140.509 141.112H140.941V142H140.401C139.201 142 138.661 141.292 138.661 140.332V136.684H137.737V135.796H138.661V134.344L139.717 133.864V135.796H140.905V136.684H139.717V140.26ZM145.246 137.668C145.174 136.864 144.502 136.564 143.878 136.564C143.29 136.564 142.702 136.9 142.702 137.428C142.702 137.908 143.182 138.184 143.722 138.316L144.538 138.52C145.474 138.748 146.422 139.192 146.422 140.224C146.422 141.544 145.042 142.144 143.962 142.144C142.918 142.144 141.55 141.664 141.442 140.128H142.522C142.666 140.92 143.158 141.232 143.998 141.232C144.61 141.232 145.342 141.016 145.342 140.296C145.342 139.768 144.826 139.588 144.238 139.444L143.374 139.228C142.45 139 141.622 138.436 141.622 137.476C141.622 136.312 142.822 135.652 143.914 135.652C145.126 135.652 146.194 136.3 146.314 137.668H145.246ZM150.947 134.632H149.795V133.432H150.947V134.632ZM149.771 142V135.796H150.851V142H149.771ZM152.238 142V135.796H153.318V136.96C153.642 136.252 154.218 135.652 155.178 135.652C156.81 135.652 157.422 136.72 157.422 137.98V142H156.342V138.088C156.342 136.996 155.874 136.564 155.034 136.564C154.122 136.564 153.318 137.332 153.318 138.952V142H152.238ZM162.086 137.668C162.014 136.864 161.342 136.564 160.718 136.564C160.13 136.564 159.542 136.9 159.542 137.428C159.542 137.908 160.022 138.184 160.562 138.316L161.378 138.52C162.314 138.748 163.262 139.192 163.262 140.224C163.262 141.544 161.882 142.144 160.802 142.144C159.758 142.144 158.39 141.664 158.282 140.128H159.362C159.506 140.92 159.998 141.232 160.838 141.232C161.45 141.232 162.182 141.016 162.182 140.296C162.182 139.768 161.666 139.588 161.078 139.444L160.214 139.228C159.29 139 158.462 138.436 158.462 137.476C158.462 136.312 159.662 135.652 160.754 135.652C161.966 135.652 163.034 136.3 163.154 137.668H162.086ZM167.396 135.652C169.148 135.652 170.228 136.96 170.228 138.88C170.228 140.8 169.148 142.144 167.396 142.144C166.268 142.144 165.488 141.4 165.26 140.764H165.248V144.4H164.168V135.796H165.248V137.056H165.26C165.488 136.408 166.268 135.652 167.396 135.652ZM165.212 138.88C165.212 140.104 165.836 141.22 167.18 141.22C168.488 141.22 169.148 140.224 169.148 138.88C169.148 137.536 168.452 136.564 167.18 136.564C165.836 136.564 165.212 137.668 165.212 138.88ZM172.312 134.632H171.16V133.432H172.312V134.632ZM171.136 142V135.796H172.216V142H171.136ZM174.683 135.796V137.044C174.995 136.132 175.595 135.772 176.531 135.772V136.804C176.483 136.804 176.291 136.816 176.135 136.84C175.415 136.948 174.683 137.272 174.683 139.072V142H173.603V135.796H174.683ZM182.713 140.152C182.365 141.472 181.321 142.144 179.941 142.144C178.105 142.144 176.893 140.812 176.893 138.868C176.893 136.996 178.165 135.652 179.917 135.652C182.101 135.652 182.785 137.404 182.809 139V139.192H177.937C178.021 140.488 178.813 141.244 179.917 141.244C180.745 141.244 181.441 140.92 181.657 140.152H182.713ZM177.949 138.328H181.717C181.621 137.248 181.021 136.54 179.917 136.54C178.801 136.54 178.093 137.26 177.949 138.328ZM186.687 135.796L188.655 140.932H188.667L190.431 135.796H191.583L188.775 143.2C188.499 143.944 188.043 144.4 187.203 144.4H186.363V143.488H187.047C187.647 143.488 187.743 143.152 187.923 142.708L188.139 142.168C187.275 140.044 186.399 137.92 185.535 135.796H186.687ZM194.785 142.144C192.901 142.144 191.677 140.728 191.677 138.904C191.677 137.08 192.901 135.652 194.785 135.652C196.669 135.652 197.893 137.08 197.893 138.904C197.893 140.728 196.669 142.144 194.785 142.144ZM192.757 138.904C192.757 140.176 193.573 141.232 194.785 141.232C195.997 141.232 196.813 140.176 196.813 138.904C196.813 137.62 195.997 136.564 194.785 136.564C193.573 136.564 192.757 137.62 192.757 138.904ZM198.757 139.816V135.796H199.837V139.708C199.837 140.8 200.305 141.232 201.145 141.232C202.057 141.232 202.861 140.464 202.861 138.844V135.796H203.941V142H202.861V140.836C202.537 141.544 201.961 142.144 201.001 142.144C199.369 142.144 198.757 141.076 198.757 139.816ZM204.928 135.856C204.928 134.284 206.008 133.228 207.544 133.228C209.08 133.228 210.076 134.224 210.076 135.628C210.076 136.624 209.536 137.164 209.044 137.68C208.552 138.184 208.024 138.676 208.024 139.444V139.744H206.944V139.348C206.944 138.34 207.484 137.788 208.012 137.284C208.504 136.804 208.996 136.372 208.996 135.628C208.996 134.752 208.444 134.14 207.544 134.14C206.644 134.14 206.008 134.812 206.008 135.856V136.048H204.928V135.856ZM206.896 142V140.56H208.06V142H206.896Z" fill="#404040"/>
</g>
</g>
<g filter="url(#filter3_d_2273_1184)">
<rect x="438" y="119" width="172" height="37" rx="4" fill="#F5F5F5" shape-rendering="crispEdges"/>
<rect x="438.5" y="119.5" width="171" height="36" rx="3.5" stroke="#EEEEEE" shape-rendering="crispEdges"/>
<g filter="url(#filter4_f_2273_1184)">
<path d="M454.12 133.432H455.32L456.82 139.84L457.036 140.788H457.048L457.264 139.84L458.716 133.432H460.276L461.68 139.84L461.896 140.8H461.908L462.136 139.84L463.696 133.432H464.896L463.216 139.84L462.652 142H461.116L459.508 134.572H459.496L458.284 139.84L457.792 142H456.268L455.728 139.84L454.12 133.432ZM465.544 142V133.432H466.624V136.96C466.948 136.252 467.524 135.652 468.484 135.652C470.116 135.652 470.728 136.72 470.728 137.98V142H469.648V138.088C469.648 136.996 469.18 136.564 468.34 136.564C467.428 136.564 466.624 137.332 466.624 138.952V142H465.544ZM471.96 137.668C472.092 136.768 472.848 135.64 474.468 135.64C476.748 135.64 476.964 137.116 476.964 138.076V140.74C476.964 141.208 477.012 141.7 477.06 142H475.908C475.884 141.7 475.884 141.448 475.884 141.1V140.86H475.872C475.728 141.34 475.212 142.144 473.832 142.144C472.344 142.144 471.66 141.196 471.66 140.308C471.66 138.556 473.868 138.496 474.804 138.328C475.62 138.184 475.884 137.956 475.884 137.44C475.884 136.924 475.392 136.552 474.504 136.552C473.748 136.552 473.184 136.996 473.04 137.668H471.96ZM472.728 140.308C472.728 140.896 473.268 141.268 474.024 141.268C474.972 141.268 475.908 140.656 475.908 139.12L475.896 138.256C475.776 138.664 475.512 139.024 474.168 139.264C473.268 139.42 472.728 139.684 472.728 140.308ZM479.544 140.26C479.544 140.812 479.856 141.112 480.336 141.112H480.768V142H480.228C479.028 142 478.488 141.292 478.488 140.332V136.684H477.564V135.796H478.488V134.344L479.544 133.864V135.796H480.732V136.684H479.544V140.26ZM487.323 135.652C489.075 135.652 490.155 136.96 490.155 138.88C490.155 140.8 489.075 142.144 487.323 142.144C486.195 142.144 485.415 141.4 485.187 140.764H485.175V144.4H484.095V135.796H485.175V137.056H485.187C485.415 136.408 486.195 135.652 487.323 135.652ZM485.139 138.88C485.139 140.104 485.763 141.22 487.107 141.22C488.415 141.22 489.075 140.224 489.075 138.88C489.075 137.536 488.379 136.564 487.107 136.564C485.763 136.564 485.139 137.668 485.139 138.88ZM492.142 135.796V137.044C492.454 136.132 493.054 135.772 493.99 135.772V136.804C493.942 136.804 493.75 136.816 493.594 136.84C492.874 136.948 492.142 137.272 492.142 139.072V142H491.062V135.796H492.142ZM497.46 142.144C495.576 142.144 494.352 140.728 494.352 138.904C494.352 137.08 495.576 135.652 497.46 135.652C499.344 135.652 500.568 137.08 500.568 138.904C500.568 140.728 499.344 142.144 497.46 142.144ZM495.432 138.904C495.432 140.176 496.248 141.232 497.46 141.232C498.672 141.232 499.488 140.176 499.488 138.904C499.488 137.62 498.672 136.564 497.46 136.564C496.248 136.564 495.432 137.62 495.432 138.904ZM503.929 135.652C505.057 135.652 505.837 136.408 506.065 137.056H506.077V133.432H507.157V142H506.077V140.764H506.065C505.837 141.4 505.057 142.144 503.929 142.144C502.177 142.144 501.097 140.8 501.097 138.88C501.097 136.96 502.177 135.652 503.929 135.652ZM502.177 138.88C502.177 140.224 502.837 141.22 504.145 141.22C505.489 141.22 506.113 140.104 506.113 138.88C506.113 137.668 505.489 136.564 504.145 136.564C502.873 136.564 502.177 137.536 502.177 138.88ZM508.4 139.816V135.796H509.48V139.708C509.48 140.8 509.948 141.232 510.788 141.232C511.7 141.232 512.504 140.464 512.504 138.844V135.796H513.584V142H512.504V140.836C512.18 141.544 511.604 142.144 510.644 142.144C509.012 142.144 508.4 141.076 508.4 139.816ZM520.42 140.104C520.072 141.4 519.172 142.144 517.672 142.144C515.74 142.144 514.492 140.776 514.492 138.904C514.492 137.032 515.74 135.652 517.672 135.652C519.256 135.652 520.108 136.528 520.372 137.656H519.292C519.064 137.092 518.644 136.54 517.636 136.54C516.376 136.54 515.572 137.572 515.572 138.904C515.572 140.224 516.376 141.244 517.636 141.244C518.536 141.244 519.052 140.836 519.328 140.104H520.42ZM522.717 140.26C522.717 140.812 523.029 141.112 523.509 141.112H523.941V142H523.401C522.201 142 521.661 141.292 521.661 140.332V136.684H520.737V135.796H521.661V134.344L522.717 133.864V135.796H523.905V136.684H522.717V140.26ZM528.246 137.668C528.174 136.864 527.502 136.564 526.878 136.564C526.29 136.564 525.702 136.9 525.702 137.428C525.702 137.908 526.182 138.184 526.722 138.316L527.538 138.52C528.474 138.748 529.422 139.192 529.422 140.224C529.422 141.544 528.042 142.144 526.962 142.144C525.918 142.144 524.55 141.664 524.442 140.128H525.522C525.666 140.92 526.158 141.232 526.998 141.232C527.61 141.232 528.342 141.016 528.342 140.296C528.342 139.768 527.826 139.588 527.238 139.444L526.374 139.228C525.45 139 524.622 138.436 524.622 137.476C524.622 136.312 525.822 135.652 526.914 135.652C528.126 135.652 529.194 136.3 529.314 137.668H528.246ZM533.947 134.632H532.795V133.432H533.947V134.632ZM532.771 142V135.796H533.851V142H532.771ZM535.238 142V135.796H536.318V136.96C536.642 136.252 537.218 135.652 538.178 135.652C539.81 135.652 540.422 136.72 540.422 137.98V142H539.342V138.088C539.342 136.996 538.874 136.564 538.034 136.564C537.122 136.564 536.318 137.332 536.318 138.952V142H535.238ZM545.086 137.668C545.014 136.864 544.342 136.564 543.718 136.564C543.13 136.564 542.542 136.9 542.542 137.428C542.542 137.908 543.022 138.184 543.562 138.316L544.378 138.52C545.314 138.748 546.262 139.192 546.262 140.224C546.262 141.544 544.882 142.144 543.802 142.144C542.758 142.144 541.39 141.664 541.282 140.128H542.362C542.506 140.92 542.998 141.232 543.838 141.232C544.45 141.232 545.182 141.016 545.182 140.296C545.182 139.768 544.666 139.588 544.078 139.444L543.214 139.228C542.29 139 541.462 138.436 541.462 137.476C541.462 136.312 542.662 135.652 543.754 135.652C544.966 135.652 546.034 136.3 546.154 137.668H545.086ZM550.396 135.652C552.148 135.652 553.228 136.96 553.228 138.88C553.228 140.8 552.148 142.144 550.396 142.144C549.268 142.144 548.488 141.4 548.26 140.764H548.248V144.4H547.168V135.796H548.248V137.056H548.26C548.488 136.408 549.268 135.652 550.396 135.652ZM548.212 138.88C548.212 140.104 548.836 141.22 550.18 141.22C551.488 141.22 552.148 140.224 552.148 138.88C552.148 137.536 551.452 136.564 550.18 136.564C548.836 136.564 548.212 137.668 548.212 138.88ZM555.312 134.632H554.16V133.432H555.312V134.632ZM554.136 142V135.796H555.216V142H554.136ZM557.683 135.796V137.044C557.995 136.132 558.595 135.772 559.531 135.772V136.804C559.483 136.804 559.291 136.816 559.135 136.84C558.415 136.948 557.683 137.272 557.683 139.072V142H556.603V135.796H557.683ZM565.713 140.152C565.365 141.472 564.321 142.144 562.941 142.144C561.105 142.144 559.893 140.812 559.893 138.868C559.893 136.996 561.165 135.652 562.917 135.652C565.101 135.652 565.785 137.404 565.809 139V139.192H560.937C561.021 140.488 561.813 141.244 562.917 141.244C563.745 141.244 564.441 140.92 564.657 140.152H565.713ZM560.949 138.328H564.717C564.621 137.248 564.021 136.54 562.917 136.54C561.801 136.54 561.093 137.26 560.949 138.328ZM569.687 135.796L571.655 140.932H571.667L573.431 135.796H574.583L571.775 143.2C571.499 143.944 571.043 144.4 570.203 144.4H569.363V143.488H570.047C570.647 143.488 570.743 143.152 570.923 142.708L571.139 142.168C570.275 140.044 569.399 137.92 568.535 135.796H569.687ZM577.785 142.144C575.901 142.144 574.677 140.728 574.677 138.904C574.677 137.08 575.901 135.652 577.785 135.652C579.669 135.652 580.893 137.08 580.893 138.904C580.893 140.728 579.669 142.144 577.785 142.144ZM575.757 138.904C575.757 140.176 576.573 141.232 577.785 141.232C578.997 141.232 579.813 140.176 579.813 138.904C579.813 137.62 578.997 136.564 577.785 136.564C576.573 136.564 575.757 137.62 575.757 138.904ZM581.757 139.816V135.796H582.837V139.708C582.837 140.8 583.305 141.232 584.145 141.232C585.057 141.232 585.861 140.464 585.861 138.844V135.796H586.941V142H585.861V140.836C585.537 141.544 584.961 142.144 584.001 142.144C582.369 142.144 581.757 141.076 581.757 139.816ZM587.928 135.856C587.928 134.284 589.008 133.228 590.544 133.228C592.08 133.228 593.076 134.224 593.076 135.628C593.076 136.624 592.536 137.164 592.044 137.68C591.552 138.184 591.024 138.676 591.024 139.444V139.744H589.944V139.348C589.944 138.34 590.484 137.788 591.012 137.284C591.504 136.804 591.996 136.372 591.996 135.628C591.996 134.752 591.444 134.14 590.544 134.14C589.644 134.14 589.008 134.812 589.008 135.856V136.048H587.928V135.856ZM589.896 142V140.56H591.06V142H589.896Z" fill="#404040"/>
</g>
</g>
<g filter="url(#filter5_d_2273_1184)">
<rect x="391" y="265" width="240" height="37" rx="4" fill="#F5F5F5" shape-rendering="crispEdges"/>
<rect x="391.5" y="265.5" width="239" height="36" rx="3.5" stroke="#EFEFEF" shape-rendering="crispEdges"/>
<path d="M408.392 288H407.216L410.408 279.432H411.836L415.028 288H413.852L412.916 285.492H409.34L408.392 288ZM409.676 284.556H412.58L411.14 280.452H411.104L409.676 284.556ZM415.766 288V281.796H416.846V282.96C417.17 282.252 417.746 281.652 418.706 281.652C420.338 281.652 420.95 282.72 420.95 283.98V288H419.87V284.088C419.87 282.996 419.402 282.564 418.562 282.564C417.65 282.564 416.846 283.332 416.846 284.952V288H415.766ZM422.405 281.796L424.373 286.932H424.385L426.149 281.796H427.301L424.493 289.2C424.217 289.944 423.761 290.4 422.921 290.4H422.081V289.488H422.765C423.365 289.488 423.461 289.152 423.641 288.708L423.857 288.168C422.993 286.044 422.117 283.92 421.253 281.796H422.405ZM435.907 286.104C435.559 287.4 434.659 288.144 433.159 288.144C431.227 288.144 429.979 286.776 429.979 284.904C429.979 283.032 431.227 281.652 433.159 281.652C434.743 281.652 435.595 282.528 435.859 283.656H434.779C434.551 283.092 434.131 282.54 433.123 282.54C431.863 282.54 431.059 283.572 431.059 284.904C431.059 286.224 431.863 287.244 433.123 287.244C434.023 287.244 434.539 286.836 434.815 286.104H435.907ZM439.62 288.144C437.736 288.144 436.512 286.728 436.512 284.904C436.512 283.08 437.736 281.652 439.62 281.652C441.504 281.652 442.728 283.08 442.728 284.904C442.728 286.728 441.504 288.144 439.62 288.144ZM437.592 284.904C437.592 286.176 438.408 287.232 439.62 287.232C440.832 287.232 441.648 286.176 441.648 284.904C441.648 283.62 440.832 282.564 439.62 282.564C438.408 282.564 437.592 283.62 437.592 284.904ZM443.641 288V281.796H444.721V282.852C444.841 282.288 445.453 281.652 446.293 281.652C447.301 281.652 447.877 282.036 448.165 282.888C448.549 282.048 449.113 281.652 449.941 281.652C451.453 281.652 452.041 282.72 452.041 283.98V288H450.961V284.088C450.961 282.996 450.517 282.564 449.797 282.564C449.005 282.564 448.369 283.332 448.369 284.952V288H447.289V284.088C447.289 282.996 446.989 282.564 446.149 282.564C445.045 282.564 444.721 283.656 444.721 284.952V288H443.641ZM456.519 281.652C458.271 281.652 459.351 282.96 459.351 284.88C459.351 286.8 458.271 288.144 456.519 288.144C455.391 288.144 454.611 287.4 454.383 286.764H454.371V290.4H453.291V281.796H454.371V283.056H454.383C454.611 282.408 455.391 281.652 456.519 281.652ZM454.335 284.88C454.335 286.104 454.959 287.22 456.303 287.22C457.611 287.22 458.271 286.224 458.271 284.88C458.271 283.536 457.575 282.564 456.303 282.564C454.959 282.564 454.335 283.668 454.335 284.88ZM465.694 286.152C465.346 287.472 464.302 288.144 462.922 288.144C461.086 288.144 459.874 286.812 459.874 284.868C459.874 282.996 461.146 281.652 462.898 281.652C465.082 281.652 465.766 283.404 465.79 285V285.192H460.918C461.002 286.488 461.794 287.244 462.898 287.244C463.726 287.244 464.422 286.92 464.638 286.152H465.694ZM460.93 284.328H464.698C464.602 283.248 464.002 282.54 462.898 282.54C461.782 282.54 461.074 283.26 460.93 284.328ZM468.053 286.26C468.053 286.812 468.365 287.112 468.845 287.112H469.277V288H468.737C467.537 288 466.997 287.292 466.997 286.332V282.684H466.073V281.796H466.997V280.344L468.053 279.864V281.796H469.241V282.684H468.053V286.26ZM471.337 280.632H470.185V279.432H471.337V280.632ZM470.161 288V281.796H471.241V288H470.161ZM473.936 286.26C473.936 286.812 474.248 287.112 474.728 287.112H475.16V288H474.62C473.42 288 472.88 287.292 472.88 286.332V282.684H471.956V281.796H472.88V280.344L473.936 279.864V281.796H475.124V282.684H473.936V286.26ZM478.745 288.144C476.861 288.144 475.637 286.728 475.637 284.904C475.637 283.08 476.861 281.652 478.745 281.652C480.629 281.652 481.853 283.08 481.853 284.904C481.853 286.728 480.629 288.144 478.745 288.144ZM476.717 284.904C476.717 286.176 477.533 287.232 478.745 287.232C479.957 287.232 480.773 286.176 480.773 284.904C480.773 283.62 479.957 282.564 478.745 282.564C477.533 282.564 476.717 283.62 476.717 284.904ZM483.845 281.796V283.044C484.157 282.132 484.757 281.772 485.693 281.772V282.804C485.645 282.804 485.453 282.816 485.297 282.84C484.577 282.948 483.845 283.272 483.845 285.072V288H482.765V281.796H483.845ZM489.953 283.668C489.881 282.864 489.209 282.564 488.585 282.564C487.997 282.564 487.409 282.9 487.409 283.428C487.409 283.908 487.889 284.184 488.429 284.316L489.245 284.52C490.181 284.748 491.129 285.192 491.129 286.224C491.129 287.544 489.749 288.144 488.669 288.144C487.625 288.144 486.257 287.664 486.149 286.128H487.229C487.373 286.92 487.865 287.232 488.705 287.232C489.317 287.232 490.049 287.016 490.049 286.296C490.049 285.768 489.533 285.588 488.945 285.444L488.081 285.228C487.157 285 486.329 284.436 486.329 283.476C486.329 282.312 487.529 281.652 488.621 281.652C489.833 281.652 490.901 282.3 491.021 283.668H489.953ZM495.583 288L493.807 281.796H494.935L495.931 285.612C496.027 285.996 496.099 286.38 496.195 286.764H496.207C496.303 286.392 496.375 285.996 496.471 285.624L497.491 281.796H498.907L499.915 285.612L500.203 286.776H500.215L500.491 285.612L501.475 281.796H502.603L500.815 288H499.579L498.475 283.932L498.199 282.876H498.187C498.091 283.236 498.019 283.572 497.923 283.932L496.819 288H495.583ZM508.663 286.152C508.315 287.472 507.271 288.144 505.891 288.144C504.055 288.144 502.843 286.812 502.843 284.868C502.843 282.996 504.115 281.652 505.867 281.652C508.051 281.652 508.735 283.404 508.759 285V285.192H503.887C503.971 286.488 504.763 287.244 505.867 287.244C506.695 287.244 507.391 286.92 507.607 286.152H508.663ZM503.899 284.328H507.667C507.571 283.248 506.971 282.54 505.867 282.54C504.751 282.54 504.043 283.26 503.899 284.328ZM515.577 283.668C515.505 282.864 514.833 282.564 514.209 282.564C513.621 282.564 513.033 282.9 513.033 283.428C513.033 283.908 513.513 284.184 514.053 284.316L514.869 284.52C515.805 284.748 516.753 285.192 516.753 286.224C516.753 287.544 515.373 288.144 514.293 288.144C513.249 288.144 511.881 287.664 511.773 286.128H512.853C512.997 286.92 513.489 287.232 514.329 287.232C514.941 287.232 515.673 287.016 515.673 286.296C515.673 285.768 515.157 285.588 514.569 285.444L513.705 285.228C512.781 285 511.953 284.436 511.953 283.476C511.953 282.312 513.153 281.652 514.245 281.652C515.457 281.652 516.525 282.3 516.645 283.668H515.577ZM517.659 288V279.432H518.739V282.96C519.063 282.252 519.639 281.652 520.599 281.652C522.231 281.652 522.843 282.72 522.843 283.98V288H521.763V284.088C521.763 282.996 521.295 282.564 520.455 282.564C519.543 282.564 518.739 283.332 518.739 284.952V288H517.659ZM526.811 288.144C524.927 288.144 523.703 286.728 523.703 284.904C523.703 283.08 524.927 281.652 526.811 281.652C528.695 281.652 529.919 283.08 529.919 284.904C529.919 286.728 528.695 288.144 526.811 288.144ZM524.783 284.904C524.783 286.176 525.599 287.232 526.811 287.232C528.023 287.232 528.839 286.176 528.839 284.904C528.839 283.62 528.023 282.564 526.811 282.564C525.599 282.564 524.783 283.62 524.783 284.904ZM530.784 285.816V281.796H531.864V285.708C531.864 286.8 532.332 287.232 533.172 287.232C534.084 287.232 534.888 286.464 534.888 284.844V281.796H535.968V288H534.888V286.836C534.564 287.544 533.988 288.144 533.028 288.144C531.396 288.144 530.784 287.076 530.784 285.816ZM537.26 279.432H538.34V288H537.26V279.432ZM542.081 281.652C543.209 281.652 543.989 282.408 544.217 283.056H544.229V279.432H545.309V288H544.229V286.764H544.217C543.989 287.4 543.209 288.144 542.081 288.144C540.329 288.144 539.249 286.8 539.249 284.88C539.249 282.96 540.329 281.652 542.081 281.652ZM540.329 284.88C540.329 286.224 540.989 287.22 542.297 287.22C543.641 287.22 544.265 286.104 544.265 284.88C544.265 283.668 543.641 282.564 542.297 282.564C541.025 282.564 540.329 283.536 540.329 284.88ZM552.272 281.652C554.024 281.652 555.104 282.96 555.104 284.88C555.104 286.8 554.024 288.144 552.272 288.144C551.144 288.144 550.364 287.4 550.136 286.764H550.124V288H549.044V279.432H550.124V283.056H550.136C550.364 282.408 551.144 281.652 552.272 281.652ZM550.088 284.88C550.088 286.104 550.712 287.22 552.056 287.22C553.364 287.22 554.024 286.224 554.024 284.88C554.024 283.536 553.328 282.564 552.056 282.564C550.712 282.564 550.088 283.668 550.088 284.88ZM561.447 286.152C561.099 287.472 560.055 288.144 558.675 288.144C556.839 288.144 555.627 286.812 555.627 284.868C555.627 282.996 556.899 281.652 558.651 281.652C560.835 281.652 561.519 283.404 561.543 285V285.192H556.671C556.755 286.488 557.547 287.244 558.651 287.244C559.479 287.244 560.175 286.92 560.391 286.152H561.447ZM556.683 284.328H560.451C560.355 283.248 559.755 282.54 558.651 282.54C557.535 282.54 556.827 283.26 556.683 284.328ZM564.929 283.668C565.061 282.768 565.817 281.64 567.437 281.64C569.717 281.64 569.933 283.116 569.933 284.076V286.74C569.933 287.208 569.981 287.7 570.029 288H568.877C568.853 287.7 568.853 287.448 568.853 287.1V286.86H568.841C568.697 287.34 568.181 288.144 566.801 288.144C565.313 288.144 564.629 287.196 564.629 286.308C564.629 284.556 566.837 284.496 567.773 284.328C568.589 284.184 568.853 283.956 568.853 283.44C568.853 282.924 568.361 282.552 567.473 282.552C566.717 282.552 566.153 282.996 566.009 283.668H564.929ZM565.697 286.308C565.697 286.896 566.237 287.268 566.993 287.268C567.941 287.268 568.877 286.656 568.877 285.12L568.865 284.256C568.745 284.664 568.481 285.024 567.137 285.264C566.237 285.42 565.697 285.684 565.697 286.308ZM572.215 288L570.439 281.796H571.567L572.563 285.612C572.659 285.996 572.731 286.38 572.827 286.764H572.839C572.935 286.392 573.007 285.996 573.103 285.624L574.123 281.796H575.539L576.547 285.612L576.835 286.776H576.847L577.123 285.612L578.107 281.796H579.235L577.447 288H576.211L575.107 283.932L574.831 282.876H574.819C574.723 283.236 574.651 283.572 574.555 283.932L573.451 288H572.215ZM579.707 283.668C579.839 282.768 580.595 281.64 582.215 281.64C584.495 281.64 584.711 283.116 584.711 284.076V286.74C584.711 287.208 584.759 287.7 584.807 288H583.655C583.631 287.7 583.631 287.448 583.631 287.1V286.86H583.619C583.475 287.34 582.959 288.144 581.579 288.144C580.091 288.144 579.407 287.196 579.407 286.308C579.407 284.556 581.615 284.496 582.551 284.328C583.367 284.184 583.631 283.956 583.631 283.44C583.631 282.924 583.139 282.552 582.251 282.552C581.495 282.552 580.931 282.996 580.787 283.668H579.707ZM580.475 286.308C580.475 286.896 581.015 287.268 581.771 287.268C582.719 287.268 583.655 286.656 583.655 285.12L583.643 284.256C583.523 284.664 583.259 285.024 581.915 285.264C581.015 285.42 580.475 285.684 580.475 286.308ZM587.063 281.796V283.044C587.375 282.132 587.975 281.772 588.911 281.772V282.804C588.863 282.804 588.671 282.816 588.515 282.84C587.795 282.948 587.063 283.272 587.063 285.072V288H585.983V281.796H587.063ZM595.093 286.152C594.745 287.472 593.701 288.144 592.321 288.144C590.485 288.144 589.273 286.812 589.273 284.868C589.273 282.996 590.545 281.652 592.297 281.652C594.481 281.652 595.165 283.404 595.189 285V285.192H590.317C590.401 286.488 591.193 287.244 592.297 287.244C593.125 287.244 593.821 286.92 594.037 286.152H595.093ZM590.329 284.328H594.097C594.001 283.248 593.401 282.54 592.297 282.54C591.181 282.54 590.473 283.26 590.329 284.328ZM601.311 288.144C599.427 288.144 598.203 286.728 598.203 284.904C598.203 283.08 599.427 281.652 601.311 281.652C603.195 281.652 604.419 283.08 604.419 284.904C604.419 286.728 603.195 288.144 601.311 288.144ZM599.283 284.904C599.283 286.176 600.099 287.232 601.311 287.232C602.523 287.232 603.339 286.176 603.339 284.904C603.339 283.62 602.523 282.564 601.311 282.564C600.099 282.564 599.283 283.62 599.283 284.904ZM605.775 281.1C605.775 280.236 606.243 279.432 607.347 279.432H608.019V280.344H607.623C607.155 280.344 606.831 280.5 606.831 281.148V281.796H607.875V282.684H606.831V288H605.775V282.684H604.923V281.796H605.775V281.1ZM608.735 281.856C608.735 280.284 609.815 279.228 611.351 279.228C612.887 279.228 613.883 280.224 613.883 281.628C613.883 282.624 613.343 283.164 612.851 283.68C612.359 284.184 611.831 284.676 611.831 285.444V285.744H610.751V285.348C610.751 284.34 611.291 283.788 611.819 283.284C612.311 282.804 612.803 282.372 612.803 281.628C612.803 280.752 612.251 280.14 611.351 280.14C610.451 280.14 609.815 280.812 609.815 281.856V282.048H608.735V281.856ZM610.703 288V286.56H611.867V288H610.703Z" fill="#404040"/>
</g>
<g filter="url(#filter6_d_2273_1184)">
<rect x="415" y="71" width="191" height="37" rx="4" fill="#F5F5F5" shape-rendering="crispEdges"/>
<rect x="415.5" y="71.5" width="190" height="36" rx="3.5" stroke="#EEEEEE" shape-rendering="crispEdges"/>
<path d="M431.12 85.432H432.32L433.82 91.84L434.036 92.788H434.048L434.264 91.84L435.716 85.432H437.276L438.68 91.84L438.896 92.8H438.908L439.136 91.84L440.696 85.432H441.896L440.216 91.84L439.652 94H438.116L436.508 86.572H436.496L435.284 91.84L434.792 94H433.268L432.728 91.84L431.12 85.432ZM442.544 94V85.432H443.624V88.96C443.948 88.252 444.524 87.652 445.484 87.652C447.116 87.652 447.728 88.72 447.728 89.98V94H446.648V90.088C446.648 88.996 446.18 88.564 445.34 88.564C444.428 88.564 443.624 89.332 443.624 90.952V94H442.544ZM448.96 89.668C449.092 88.768 449.848 87.64 451.468 87.64C453.748 87.64 453.964 89.116 453.964 90.076V92.74C453.964 93.208 454.012 93.7 454.06 94H452.908C452.884 93.7 452.884 93.448 452.884 93.1V92.86H452.872C452.728 93.34 452.212 94.144 450.832 94.144C449.344 94.144 448.66 93.196 448.66 92.308C448.66 90.556 450.868 90.496 451.804 90.328C452.62 90.184 452.884 89.956 452.884 89.44C452.884 88.924 452.392 88.552 451.504 88.552C450.748 88.552 450.184 88.996 450.04 89.668H448.96ZM449.728 92.308C449.728 92.896 450.268 93.268 451.024 93.268C451.972 93.268 452.908 92.656 452.908 91.12L452.896 90.256C452.776 90.664 452.512 91.024 451.168 91.264C450.268 91.42 449.728 91.684 449.728 92.308ZM456.544 92.26C456.544 92.812 456.856 93.112 457.336 93.112H457.768V94H457.228C456.028 94 455.488 93.292 455.488 92.332V88.684H454.564V87.796H455.488V86.344L456.544 85.864V87.796H457.732V88.684H456.544V92.26ZM461.083 89.668C461.215 88.768 461.971 87.64 463.591 87.64C465.871 87.64 466.087 89.116 466.087 90.076V92.74C466.087 93.208 466.135 93.7 466.183 94H465.031C465.007 93.7 465.007 93.448 465.007 93.1V92.86H464.995C464.851 93.34 464.335 94.144 462.955 94.144C461.467 94.144 460.783 93.196 460.783 92.308C460.783 90.556 462.991 90.496 463.927 90.328C464.743 90.184 465.007 89.956 465.007 89.44C465.007 88.924 464.515 88.552 463.627 88.552C462.871 88.552 462.307 88.996 462.163 89.668H461.083ZM461.851 92.308C461.851 92.896 462.391 93.268 463.147 93.268C464.095 93.268 465.031 92.656 465.031 91.12L465.019 90.256C464.899 90.664 464.635 91.024 463.291 91.264C462.391 91.42 461.851 91.684 461.851 92.308ZM468.439 87.796V89.044C468.751 88.132 469.351 87.772 470.287 87.772V88.804C470.239 88.804 470.047 88.816 469.891 88.84C469.171 88.948 468.439 89.272 468.439 91.072V94H467.359V87.796H468.439ZM476.469 92.152C476.121 93.472 475.077 94.144 473.697 94.144C471.861 94.144 470.649 92.812 470.649 90.868C470.649 88.996 471.921 87.652 473.673 87.652C475.857 87.652 476.541 89.404 476.565 91V91.192H471.693C471.777 92.488 472.569 93.244 473.673 93.244C474.501 93.244 475.197 92.92 475.413 92.152H476.469ZM471.705 90.328H475.473C475.377 89.248 474.777 88.54 473.673 88.54C472.557 88.54 471.849 89.26 471.705 90.328ZM480.443 87.796L482.411 92.932H482.423L484.187 87.796H485.339L482.531 95.2C482.255 95.944 481.799 96.4 480.959 96.4H480.119V95.488H480.803C481.403 95.488 481.499 95.152 481.679 94.708L481.895 94.168C481.031 92.044 480.155 89.92 479.291 87.796H480.443ZM488.541 94.144C486.657 94.144 485.433 92.728 485.433 90.904C485.433 89.08 486.657 87.652 488.541 87.652C490.425 87.652 491.649 89.08 491.649 90.904C491.649 92.728 490.425 94.144 488.541 94.144ZM486.513 90.904C486.513 92.176 487.329 93.232 488.541 93.232C489.753 93.232 490.569 92.176 490.569 90.904C490.569 89.62 489.753 88.564 488.541 88.564C487.329 88.564 486.513 89.62 486.513 90.904ZM492.514 91.816V87.796H493.594V91.708C493.594 92.8 494.062 93.232 494.902 93.232C495.814 93.232 496.618 92.464 496.618 90.844V87.796H497.698V94H496.618V92.836C496.294 93.544 495.718 94.144 494.758 94.144C493.126 94.144 492.514 93.076 492.514 91.816ZM500.07 87.796V89.044C500.382 88.132 500.982 87.772 501.918 87.772V88.804C501.87 88.804 501.678 88.816 501.522 88.84C500.802 88.948 500.07 89.272 500.07 91.072V94H498.99V87.796H500.07ZM510.745 92.104C510.397 93.4 509.497 94.144 507.997 94.144C506.065 94.144 504.817 92.776 504.817 90.904C504.817 89.032 506.065 87.652 507.997 87.652C509.581 87.652 510.433 88.528 510.697 89.656H509.617C509.389 89.092 508.969 88.54 507.961 88.54C506.701 88.54 505.897 89.572 505.897 90.904C505.897 92.224 506.701 93.244 507.961 93.244C508.861 93.244 509.377 92.836 509.653 92.104H510.745ZM514.458 94.144C512.574 94.144 511.35 92.728 511.35 90.904C511.35 89.08 512.574 87.652 514.458 87.652C516.342 87.652 517.566 89.08 517.566 90.904C517.566 92.728 516.342 94.144 514.458 94.144ZM512.43 90.904C512.43 92.176 513.246 93.232 514.458 93.232C515.67 93.232 516.486 92.176 516.486 90.904C516.486 89.62 515.67 88.564 514.458 88.564C513.246 88.564 512.43 89.62 512.43 90.904ZM518.479 94V87.796H519.559V88.852C519.679 88.288 520.291 87.652 521.131 87.652C522.139 87.652 522.715 88.036 523.003 88.888C523.387 88.048 523.951 87.652 524.779 87.652C526.291 87.652 526.879 88.72 526.879 89.98V94H525.799V90.088C525.799 88.996 525.355 88.564 524.635 88.564C523.843 88.564 523.207 89.332 523.207 90.952V94H522.127V90.088C522.127 88.996 521.827 88.564 520.987 88.564C519.883 88.564 519.559 89.656 519.559 90.952V94H518.479ZM531.357 87.652C533.109 87.652 534.189 88.96 534.189 90.88C534.189 92.8 533.109 94.144 531.357 94.144C530.229 94.144 529.449 93.4 529.221 92.764H529.209V96.4H528.129V87.796H529.209V89.056H529.221C529.449 88.408 530.229 87.652 531.357 87.652ZM529.173 90.88C529.173 92.104 529.797 93.22 531.141 93.22C532.449 93.22 533.109 92.224 533.109 90.88C533.109 89.536 532.413 88.564 531.141 88.564C529.797 88.564 529.173 89.668 529.173 90.88ZM535.084 89.668C535.216 88.768 535.972 87.64 537.592 87.64C539.872 87.64 540.088 89.116 540.088 90.076V92.74C540.088 93.208 540.136 93.7 540.184 94H539.032C539.008 93.7 539.008 93.448 539.008 93.1V92.86H538.996C538.852 93.34 538.336 94.144 536.956 94.144C535.468 94.144 534.784 93.196 534.784 92.308C534.784 90.556 536.992 90.496 537.928 90.328C538.744 90.184 539.008 89.956 539.008 89.44C539.008 88.924 538.516 88.552 537.628 88.552C536.872 88.552 536.308 88.996 536.164 89.668H535.084ZM535.852 92.308C535.852 92.896 536.392 93.268 537.148 93.268C538.096 93.268 539.032 92.656 539.032 91.12L539.02 90.256C538.9 90.664 538.636 91.024 537.292 91.264C536.392 91.42 535.852 91.684 535.852 92.308ZM541.36 94V87.796H542.44V88.96C542.764 88.252 543.34 87.652 544.3 87.652C545.932 87.652 546.544 88.72 546.544 89.98V94H545.464V90.088C545.464 88.996 544.996 88.564 544.156 88.564C543.244 88.564 542.44 89.332 542.44 90.952V94H541.36ZM547.999 87.796L549.967 92.932H549.979L551.743 87.796H552.895L550.087 95.2C549.811 95.944 549.355 96.4 548.515 96.4H547.675V95.488H548.359C548.959 95.488 549.055 95.152 549.235 94.708L549.451 94.168C548.587 92.044 547.711 89.92 546.847 87.796H547.999ZM560.553 87.796H561.633V93.52C561.633 95.356 560.289 96.376 558.753 96.376C557.217 96.376 556.017 95.608 555.885 94.264H556.965C557.085 95.152 557.769 95.464 558.753 95.464C559.737 95.464 560.553 94.924 560.553 93.52V92.776H560.541C560.277 93.544 559.665 94.144 558.453 94.144C556.677 94.144 555.573 92.74 555.573 90.88C555.573 89.032 556.677 87.652 558.453 87.652C559.665 87.652 560.313 88.336 560.541 88.948H560.553V87.796ZM556.653 90.88C556.653 92.104 557.265 93.22 558.621 93.22C560.145 93.22 560.589 91.864 560.589 90.88C560.589 89.908 559.953 88.564 558.621 88.564C557.301 88.564 556.653 89.668 556.653 90.88ZM565.648 94.144C563.764 94.144 562.54 92.728 562.54 90.904C562.54 89.08 563.764 87.652 565.648 87.652C567.532 87.652 568.756 89.08 568.756 90.904C568.756 92.728 567.532 94.144 565.648 94.144ZM563.62 90.904C563.62 92.176 564.436 93.232 565.648 93.232C566.86 93.232 567.676 92.176 567.676 90.904C567.676 89.62 566.86 88.564 565.648 88.564C564.436 88.564 563.62 89.62 563.62 90.904ZM569.656 89.668C569.788 88.768 570.544 87.64 572.164 87.64C574.444 87.64 574.66 89.116 574.66 90.076V92.74C574.66 93.208 574.708 93.7 574.756 94H573.604C573.58 93.7 573.58 93.448 573.58 93.1V92.86H573.568C573.424 93.34 572.908 94.144 571.528 94.144C570.04 94.144 569.356 93.196 569.356 92.308C569.356 90.556 571.564 90.496 572.5 90.328C573.316 90.184 573.58 89.956 573.58 89.44C573.58 88.924 573.088 88.552 572.2 88.552C571.444 88.552 570.88 88.996 570.736 89.668H569.656ZM570.424 92.308C570.424 92.896 570.964 93.268 571.72 93.268C572.668 93.268 573.604 92.656 573.604 91.12L573.592 90.256C573.472 90.664 573.208 91.024 571.864 91.264C570.964 91.42 570.424 91.684 570.424 92.308ZM575.932 85.432H577.012V94H575.932V85.432ZM581.725 89.668C581.653 88.864 580.981 88.564 580.357 88.564C579.769 88.564 579.181 88.9 579.181 89.428C579.181 89.908 579.661 90.184 580.201 90.316L581.017 90.52C581.953 90.748 582.901 91.192 582.901 92.224C582.901 93.544 581.521 94.144 580.441 94.144C579.397 94.144 578.029 93.664 577.921 92.128H579.001C579.145 92.92 579.637 93.232 580.477 93.232C581.089 93.232 581.821 93.016 581.821 92.296C581.821 91.768 581.305 91.588 580.717 91.444L579.853 91.228C578.929 91 578.101 90.436 578.101 89.476C578.101 88.312 579.301 87.652 580.393 87.652C581.605 87.652 582.673 88.3 582.793 89.668H581.725ZM583.327 87.856C583.327 86.284 584.407 85.228 585.943 85.228C587.479 85.228 588.475 86.224 588.475 87.628C588.475 88.624 587.935 89.164 587.443 89.68C586.951 90.184 586.423 90.676 586.423 91.444V91.744H585.343V91.348C585.343 90.34 585.883 89.788 586.411 89.284C586.903 88.804 587.395 88.372 587.395 87.628C587.395 86.752 586.843 86.14 585.943 86.14C585.043 86.14 584.407 86.812 584.407 87.856V88.048H583.327V87.856ZM585.295 94V92.56H586.459V94H585.295Z" fill="#404040"/>
</g>
<g filter="url(#filter7_d_2273_1184)">
<rect x="102" y="265" width="191" height="37" rx="4" fill="#F5F5F5" shape-rendering="crispEdges"/>
<rect x="102.5" y="265.5" width="190" height="36" rx="3.5" stroke="#EEEEEE" shape-rendering="crispEdges"/>
<g filter="url(#filter8_f_2273_1184)">
<path d="M118.12 279.432H119.32L120.82 285.84L121.036 286.788H121.048L121.264 285.84L122.716 279.432H124.276L125.68 285.84L125.896 286.8H125.908L126.136 285.84L127.696 279.432H128.896L127.216 285.84L126.652 288H125.116L123.508 280.572H123.496L122.284 285.84L121.792 288H120.268L119.728 285.84L118.12 279.432ZM129.544 288V279.432H130.624V282.96C130.948 282.252 131.524 281.652 132.484 281.652C134.116 281.652 134.728 282.72 134.728 283.98V288H133.648V284.088C133.648 282.996 133.18 282.564 132.34 282.564C131.428 282.564 130.624 283.332 130.624 284.952V288H129.544ZM135.96 283.668C136.092 282.768 136.848 281.64 138.468 281.64C140.748 281.64 140.964 283.116 140.964 284.076V286.74C140.964 287.208 141.012 287.7 141.06 288H139.908C139.884 287.7 139.884 287.448 139.884 287.1V286.86H139.872C139.728 287.34 139.212 288.144 137.832 288.144C136.344 288.144 135.66 287.196 135.66 286.308C135.66 284.556 137.868 284.496 138.804 284.328C139.62 284.184 139.884 283.956 139.884 283.44C139.884 282.924 139.392 282.552 138.504 282.552C137.748 282.552 137.184 282.996 137.04 283.668H135.96ZM136.728 286.308C136.728 286.896 137.268 287.268 138.024 287.268C138.972 287.268 139.908 286.656 139.908 285.12L139.896 284.256C139.776 284.664 139.512 285.024 138.168 285.264C137.268 285.42 136.728 285.684 136.728 286.308ZM143.544 286.26C143.544 286.812 143.856 287.112 144.336 287.112H144.768V288H144.228C143.028 288 142.488 287.292 142.488 286.332V282.684H141.564V281.796H142.488V280.344L143.544 279.864V281.796H144.732V282.684H143.544V286.26ZM148.083 283.668C148.215 282.768 148.971 281.64 150.591 281.64C152.871 281.64 153.087 283.116 153.087 284.076V286.74C153.087 287.208 153.135 287.7 153.183 288H152.031C152.007 287.7 152.007 287.448 152.007 287.1V286.86H151.995C151.851 287.34 151.335 288.144 149.955 288.144C148.467 288.144 147.783 287.196 147.783 286.308C147.783 284.556 149.991 284.496 150.927 284.328C151.743 284.184 152.007 283.956 152.007 283.44C152.007 282.924 151.515 282.552 150.627 282.552C149.871 282.552 149.307 282.996 149.163 283.668H148.083ZM148.851 286.308C148.851 286.896 149.391 287.268 150.147 287.268C151.095 287.268 152.031 286.656 152.031 285.12L152.019 284.256C151.899 284.664 151.635 285.024 150.291 285.264C149.391 285.42 148.851 285.684 148.851 286.308ZM155.439 281.796V283.044C155.751 282.132 156.351 281.772 157.287 281.772V282.804C157.239 282.804 157.047 282.816 156.891 282.84C156.171 282.948 155.439 283.272 155.439 285.072V288H154.359V281.796H155.439ZM163.469 286.152C163.121 287.472 162.077 288.144 160.697 288.144C158.861 288.144 157.649 286.812 157.649 284.868C157.649 282.996 158.921 281.652 160.673 281.652C162.857 281.652 163.541 283.404 163.565 285V285.192H158.693C158.777 286.488 159.569 287.244 160.673 287.244C161.501 287.244 162.197 286.92 162.413 286.152H163.469ZM158.705 284.328H162.473C162.377 283.248 161.777 282.54 160.673 282.54C159.557 282.54 158.849 283.26 158.705 284.328ZM167.443 281.796L169.411 286.932H169.423L171.187 281.796H172.339L169.531 289.2C169.255 289.944 168.799 290.4 167.959 290.4H167.119V289.488H167.803C168.403 289.488 168.499 289.152 168.679 288.708L168.895 288.168C168.031 286.044 167.155 283.92 166.291 281.796H167.443ZM175.541 288.144C173.657 288.144 172.433 286.728 172.433 284.904C172.433 283.08 173.657 281.652 175.541 281.652C177.425 281.652 178.649 283.08 178.649 284.904C178.649 286.728 177.425 288.144 175.541 288.144ZM173.513 284.904C173.513 286.176 174.329 287.232 175.541 287.232C176.753 287.232 177.569 286.176 177.569 284.904C177.569 283.62 176.753 282.564 175.541 282.564C174.329 282.564 173.513 283.62 173.513 284.904ZM179.514 285.816V281.796H180.594V285.708C180.594 286.8 181.062 287.232 181.902 287.232C182.814 287.232 183.618 286.464 183.618 284.844V281.796H184.698V288H183.618V286.836C183.294 287.544 182.718 288.144 181.758 288.144C180.126 288.144 179.514 287.076 179.514 285.816ZM187.07 281.796V283.044C187.382 282.132 187.982 281.772 188.918 281.772V282.804C188.87 282.804 188.678 282.816 188.522 282.84C187.802 282.948 187.07 283.272 187.07 285.072V288H185.99V281.796H187.07ZM197.745 286.104C197.397 287.4 196.497 288.144 194.997 288.144C193.065 288.144 191.817 286.776 191.817 284.904C191.817 283.032 193.065 281.652 194.997 281.652C196.581 281.652 197.433 282.528 197.697 283.656H196.617C196.389 283.092 195.969 282.54 194.961 282.54C193.701 282.54 192.897 283.572 192.897 284.904C192.897 286.224 193.701 287.244 194.961 287.244C195.861 287.244 196.377 286.836 196.653 286.104H197.745ZM201.458 288.144C199.574 288.144 198.35 286.728 198.35 284.904C198.35 283.08 199.574 281.652 201.458 281.652C203.342 281.652 204.566 283.08 204.566 284.904C204.566 286.728 203.342 288.144 201.458 288.144ZM199.43 284.904C199.43 286.176 200.246 287.232 201.458 287.232C202.67 287.232 203.486 286.176 203.486 284.904C203.486 283.62 202.67 282.564 201.458 282.564C200.246 282.564 199.43 283.62 199.43 284.904ZM205.479 288V281.796H206.559V282.852C206.679 282.288 207.291 281.652 208.131 281.652C209.139 281.652 209.715 282.036 210.003 282.888C210.387 282.048 210.951 281.652 211.779 281.652C213.291 281.652 213.879 282.72 213.879 283.98V288H212.799V284.088C212.799 282.996 212.355 282.564 211.635 282.564C210.843 282.564 210.207 283.332 210.207 284.952V288H209.127V284.088C209.127 282.996 208.827 282.564 207.987 282.564C206.883 282.564 206.559 283.656 206.559 284.952V288H205.479ZM218.357 281.652C220.109 281.652 221.189 282.96 221.189 284.88C221.189 286.8 220.109 288.144 218.357 288.144C217.229 288.144 216.449 287.4 216.221 286.764H216.209V290.4H215.129V281.796H216.209V283.056H216.221C216.449 282.408 217.229 281.652 218.357 281.652ZM216.173 284.88C216.173 286.104 216.797 287.22 218.141 287.22C219.449 287.22 220.109 286.224 220.109 284.88C220.109 283.536 219.413 282.564 218.141 282.564C216.797 282.564 216.173 283.668 216.173 284.88ZM222.084 283.668C222.216 282.768 222.972 281.64 224.592 281.64C226.872 281.64 227.088 283.116 227.088 284.076V286.74C227.088 287.208 227.136 287.7 227.184 288H226.032C226.008 287.7 226.008 287.448 226.008 287.1V286.86H225.996C225.852 287.34 225.336 288.144 223.956 288.144C222.468 288.144 221.784 287.196 221.784 286.308C221.784 284.556 223.992 284.496 224.928 284.328C225.744 284.184 226.008 283.956 226.008 283.44C226.008 282.924 225.516 282.552 224.628 282.552C223.872 282.552 223.308 282.996 223.164 283.668H222.084ZM222.852 286.308C222.852 286.896 223.392 287.268 224.148 287.268C225.096 287.268 226.032 286.656 226.032 285.12L226.02 284.256C225.9 284.664 225.636 285.024 224.292 285.264C223.392 285.42 222.852 285.684 222.852 286.308ZM228.36 288V281.796H229.44V282.96C229.764 282.252 230.34 281.652 231.3 281.652C232.932 281.652 233.544 282.72 233.544 283.98V288H232.464V284.088C232.464 282.996 231.996 282.564 231.156 282.564C230.244 282.564 229.44 283.332 229.44 284.952V288H228.36ZM234.999 281.796L236.967 286.932H236.979L238.743 281.796H239.895L237.087 289.2C236.811 289.944 236.355 290.4 235.515 290.4H234.675V289.488H235.359C235.959 289.488 236.055 289.152 236.235 288.708L236.451 288.168C235.587 286.044 234.711 283.92 233.847 281.796H234.999ZM247.553 281.796H248.633V287.52C248.633 289.356 247.289 290.376 245.753 290.376C244.217 290.376 243.017 289.608 242.885 288.264H243.965C244.085 289.152 244.769 289.464 245.753 289.464C246.737 289.464 247.553 288.924 247.553 287.52V286.776H247.541C247.277 287.544 246.665 288.144 245.453 288.144C243.677 288.144 242.573 286.74 242.573 284.88C242.573 283.032 243.677 281.652 245.453 281.652C246.665 281.652 247.313 282.336 247.541 282.948H247.553V281.796ZM243.653 284.88C243.653 286.104 244.265 287.22 245.621 287.22C247.145 287.22 247.589 285.864 247.589 284.88C247.589 283.908 246.953 282.564 245.621 282.564C244.301 282.564 243.653 283.668 243.653 284.88ZM252.648 288.144C250.764 288.144 249.54 286.728 249.54 284.904C249.54 283.08 250.764 281.652 252.648 281.652C254.532 281.652 255.756 283.08 255.756 284.904C255.756 286.728 254.532 288.144 252.648 288.144ZM250.62 284.904C250.62 286.176 251.436 287.232 252.648 287.232C253.86 287.232 254.676 286.176 254.676 284.904C254.676 283.62 253.86 282.564 252.648 282.564C251.436 282.564 250.62 283.62 250.62 284.904ZM256.656 283.668C256.788 282.768 257.544 281.64 259.164 281.64C261.444 281.64 261.66 283.116 261.66 284.076V286.74C261.66 287.208 261.708 287.7 261.756 288H260.604C260.58 287.7 260.58 287.448 260.58 287.1V286.86H260.568C260.424 287.34 259.908 288.144 258.528 288.144C257.04 288.144 256.356 287.196 256.356 286.308C256.356 284.556 258.564 284.496 259.5 284.328C260.316 284.184 260.58 283.956 260.58 283.44C260.58 282.924 260.088 282.552 259.2 282.552C258.444 282.552 257.88 282.996 257.736 283.668H256.656ZM257.424 286.308C257.424 286.896 257.964 287.268 258.72 287.268C259.668 287.268 260.604 286.656 260.604 285.12L260.592 284.256C260.472 284.664 260.208 285.024 258.864 285.264C257.964 285.42 257.424 285.684 257.424 286.308ZM262.932 279.432H264.012V288H262.932V279.432ZM268.725 283.668C268.653 282.864 267.981 282.564 267.357 282.564C266.769 282.564 266.181 282.9 266.181 283.428C266.181 283.908 266.661 284.184 267.201 284.316L268.017 284.52C268.953 284.748 269.901 285.192 269.901 286.224C269.901 287.544 268.521 288.144 267.441 288.144C266.397 288.144 265.029 287.664 264.921 286.128H266.001C266.145 286.92 266.637 287.232 267.477 287.232C268.089 287.232 268.821 287.016 268.821 286.296C268.821 285.768 268.305 285.588 267.717 285.444L266.853 285.228C265.929 285 265.101 284.436 265.101 283.476C265.101 282.312 266.301 281.652 267.393 281.652C268.605 281.652 269.673 282.3 269.793 283.668H268.725ZM270.327 281.856C270.327 280.284 271.407 279.228 272.943 279.228C274.479 279.228 275.475 280.224 275.475 281.628C275.475 282.624 274.935 283.164 274.443 283.68C273.951 284.184 273.423 284.676 273.423 285.444V285.744H272.343V285.348C272.343 284.34 272.883 283.788 273.411 283.284C273.903 282.804 274.395 282.372 274.395 281.628C274.395 280.752 273.843 280.14 272.943 280.14C272.043 280.14 271.407 280.812 271.407 281.856V282.048H270.327V281.856ZM272.295 288V286.56H273.459V288H272.295Z" fill="#404040"/>
</g>
</g>
<g filter="url(#filter9_d_2273_1184)">
<rect x="15" y="216" width="212" height="37" rx="4" fill="#F5F5F5" shape-rendering="crispEdges"/>
<rect x="15.5" y="216.5" width="211" height="36" rx="3.5" stroke="#EEEEEE" shape-rendering="crispEdges"/>
<path d="M31.12 230.432H32.32L33.82 236.84L34.036 237.788H34.048L34.264 236.84L35.716 230.432H37.276L38.68 236.84L38.896 237.8H38.908L39.136 236.84L40.696 230.432H41.896L40.216 236.84L39.652 239H38.116L36.508 231.572H36.496L35.284 236.84L34.792 239H33.268L32.728 236.84L31.12 230.432ZM42.5436 239V230.432H43.6236V233.96C43.9476 233.252 44.5236 232.652 45.4836 232.652C47.1156 232.652 47.7276 233.72 47.7276 234.98V239H46.6476V235.088C46.6476 233.996 46.1796 233.564 45.3396 233.564C44.4276 233.564 43.6236 234.332 43.6236 235.952V239H42.5436ZM48.9596 234.668C49.0916 233.768 49.8476 232.64 51.4676 232.64C53.7476 232.64 53.9636 234.116 53.9636 235.076V237.74C53.9636 238.208 54.0116 238.7 54.0596 239H52.9076C52.8836 238.7 52.8836 238.448 52.8836 238.1V237.86H52.8716C52.7276 238.34 52.2116 239.144 50.8316 239.144C49.3436 239.144 48.6596 238.196 48.6596 237.308C48.6596 235.556 50.8676 235.496 51.8036 235.328C52.6196 235.184 52.8836 234.956 52.8836 234.44C52.8836 233.924 52.3916 233.552 51.5036 233.552C50.7476 233.552 50.1836 233.996 50.0396 234.668H48.9596ZM49.7276 237.308C49.7276 237.896 50.2676 238.268 51.0236 238.268C51.9716 238.268 52.9076 237.656 52.9076 236.12L52.8956 235.256C52.7756 235.664 52.5116 236.024 51.1676 236.264C50.2676 236.42 49.7276 236.684 49.7276 237.308ZM56.5435 237.26C56.5435 237.812 56.8555 238.112 57.3355 238.112H57.7675V239H57.2275C56.0275 239 55.4875 238.292 55.4875 237.332V233.684H54.5635V232.796H55.4875V231.344L56.5435 230.864V232.796H57.7315V233.684H56.5435V237.26ZM63.5433 232.652C64.6713 232.652 65.4513 233.408 65.6793 234.056H65.6913V230.432H66.7713V239H65.6913V237.764H65.6793C65.4513 238.4 64.6713 239.144 63.5433 239.144C61.7913 239.144 60.7113 237.8 60.7113 235.88C60.7113 233.96 61.7913 232.652 63.5433 232.652ZM61.7913 235.88C61.7913 237.224 62.4513 238.22 63.7593 238.22C65.1033 238.22 65.7273 237.104 65.7273 235.88C65.7273 234.668 65.1033 233.564 63.7593 233.564C62.4873 233.564 61.7913 234.536 61.7913 235.88ZM70.7864 239.144C68.9024 239.144 67.6784 237.728 67.6784 235.904C67.6784 234.08 68.9024 232.652 70.7864 232.652C72.6704 232.652 73.8944 234.08 73.8944 235.904C73.8944 237.728 72.6704 239.144 70.7864 239.144ZM68.7584 235.904C68.7584 237.176 69.5744 238.232 70.7864 238.232C71.9984 238.232 72.8144 237.176 72.8144 235.904C72.8144 234.62 71.9984 233.564 70.7864 233.564C69.5744 233.564 68.7584 234.62 68.7584 235.904ZM77.7303 232.796L79.6983 237.932H79.7103L81.4743 232.796H82.6263L79.8183 240.2C79.5423 240.944 79.0863 241.4 78.2463 241.4H77.4063V240.488H78.0903C78.6903 240.488 78.7863 240.152 78.9663 239.708L79.1823 239.168C78.3183 237.044 77.4423 234.92 76.5783 232.796H77.7303ZM85.8281 239.144C83.9441 239.144 82.7201 237.728 82.7201 235.904C82.7201 234.08 83.9441 232.652 85.8281 232.652C87.7121 232.652 88.9361 234.08 88.9361 235.904C88.9361 237.728 87.7121 239.144 85.8281 239.144ZM83.8001 235.904C83.8001 237.176 84.6161 238.232 85.8281 238.232C87.0401 238.232 87.8561 237.176 87.8561 235.904C87.8561 234.62 87.0401 233.564 85.8281 233.564C84.6161 233.564 83.8001 234.62 83.8001 235.904ZM89.8005 236.816V232.796H90.8805V236.708C90.8805 237.8 91.3485 238.232 92.1885 238.232C93.1005 238.232 93.9045 237.464 93.9045 235.844V232.796H94.9845V239H93.9045V237.836C93.5805 238.544 93.0045 239.144 92.0445 239.144C90.4125 239.144 89.8005 238.076 89.8005 236.816ZM99.824 239L98.048 232.796H99.176L100.172 236.612C100.268 236.996 100.34 237.38 100.436 237.764H100.448C100.544 237.392 100.616 236.996 100.712 236.624L101.732 232.796H103.148L104.156 236.612L104.444 237.776H104.456L104.732 236.612L105.716 232.796H106.844L105.056 239H103.82L102.716 234.932L102.44 233.876H102.428C102.332 234.236 102.26 234.572 102.164 234.932L101.06 239H99.824ZM107.316 234.668C107.448 233.768 108.204 232.64 109.824 232.64C112.104 232.64 112.32 234.116 112.32 235.076V237.74C112.32 238.208 112.368 238.7 112.416 239H111.264C111.24 238.7 111.24 238.448 111.24 238.1V237.86H111.228C111.084 238.34 110.568 239.144 109.188 239.144C107.7 239.144 107.016 238.196 107.016 237.308C107.016 235.556 109.224 235.496 110.16 235.328C110.976 235.184 111.24 234.956 111.24 234.44C111.24 233.924 110.748 233.552 109.86 233.552C109.104 233.552 108.54 233.996 108.396 234.668H107.316ZM108.084 237.308C108.084 237.896 108.624 238.268 109.38 238.268C110.328 238.268 111.264 237.656 111.264 236.12L111.252 235.256C111.132 235.664 110.868 236.024 109.524 236.264C108.624 236.42 108.084 236.684 108.084 237.308ZM113.592 239V232.796H114.672V233.96C114.996 233.252 115.572 232.652 116.532 232.652C118.164 232.652 118.776 233.72 118.776 234.98V239H117.696V235.088C117.696 233.996 117.228 233.564 116.388 233.564C115.476 233.564 114.672 234.332 114.672 235.952V239H113.592ZM121.328 237.26C121.328 237.812 121.64 238.112 122.12 238.112H122.552V239H122.012C120.812 239 120.272 238.292 120.272 237.332V233.684H119.348V232.796H120.272V231.344L121.328 230.864V232.796H122.516V233.684H121.328V237.26ZM127.187 237.26C127.187 237.812 127.499 238.112 127.979 238.112H128.411V239H127.871C126.671 239 126.131 238.292 126.131 237.332V233.684H125.207V232.796H126.131V231.344L127.187 230.864V232.796H128.375V233.684H127.187V237.26ZM131.996 239.144C130.112 239.144 128.888 237.728 128.888 235.904C128.888 234.08 130.112 232.652 131.996 232.652C133.88 232.652 135.104 234.08 135.104 235.904C135.104 237.728 133.88 239.144 131.996 239.144ZM129.968 235.904C129.968 237.176 130.784 238.232 131.996 238.232C133.208 238.232 134.024 237.176 134.024 235.904C134.024 234.62 133.208 233.564 131.996 233.564C130.784 233.564 129.968 234.62 129.968 235.904ZM141.88 234.668C141.808 233.864 141.136 233.564 140.512 233.564C139.924 233.564 139.336 233.9 139.336 234.428C139.336 234.908 139.816 235.184 140.356 235.316L141.172 235.52C142.108 235.748 143.056 236.192 143.056 237.224C143.056 238.544 141.676 239.144 140.596 239.144C139.552 239.144 138.184 238.664 138.076 237.128H139.156C139.3 237.92 139.792 238.232 140.632 238.232C141.244 238.232 141.976 238.016 141.976 237.296C141.976 236.768 141.46 236.588 140.872 236.444L140.008 236.228C139.084 236 138.256 235.436 138.256 234.476C138.256 233.312 139.456 232.652 140.548 232.652C141.76 232.652 142.828 233.3 142.948 234.668H141.88ZM149.445 237.152C149.097 238.472 148.053 239.144 146.673 239.144C144.837 239.144 143.625 237.812 143.625 235.868C143.625 233.996 144.897 232.652 146.649 232.652C148.833 232.652 149.517 234.404 149.541 236V236.192H144.669C144.753 237.488 145.545 238.244 146.649 238.244C147.477 238.244 148.173 237.92 148.389 237.152H149.445ZM144.681 235.328H148.449C148.353 234.248 147.753 233.54 146.649 233.54C145.533 233.54 144.825 234.26 144.681 235.328ZM151.804 237.26C151.804 237.812 152.116 238.112 152.596 238.112H153.028V239H152.488C151.288 239 150.748 238.292 150.748 237.332V233.684H149.824V232.796H150.748V231.344L151.804 230.864V232.796H152.992V233.684H151.804V237.26ZM156.836 232.796L158.804 237.932H158.816L160.58 232.796H161.732L158.924 240.2C158.648 240.944 158.192 241.4 157.352 241.4H156.512V240.488H157.196C157.796 240.488 157.892 240.152 158.072 239.708L158.288 239.168C157.424 237.044 156.548 234.92 155.684 232.796H156.836ZM164.933 239.144C163.049 239.144 161.825 237.728 161.825 235.904C161.825 234.08 163.049 232.652 164.933 232.652C166.817 232.652 168.041 234.08 168.041 235.904C168.041 237.728 166.817 239.144 164.933 239.144ZM162.905 235.904C162.905 237.176 163.721 238.232 164.933 238.232C166.145 238.232 166.961 237.176 166.961 235.904C166.961 234.62 166.145 233.564 164.933 233.564C163.721 233.564 162.905 234.62 162.905 235.904ZM168.906 236.816V232.796H169.986V236.708C169.986 237.8 170.454 238.232 171.294 238.232C172.206 238.232 173.01 237.464 173.01 235.844V232.796H174.09V239H173.01V237.836C172.686 238.544 172.11 239.144 171.15 239.144C169.518 239.144 168.906 238.076 168.906 236.816ZM177.813 234.668C177.945 233.768 178.701 232.64 180.321 232.64C182.601 232.64 182.817 234.116 182.817 235.076V237.74C182.817 238.208 182.865 238.7 182.913 239H181.761C181.737 238.7 181.737 238.448 181.737 238.1V237.86H181.725C181.581 238.34 181.065 239.144 179.685 239.144C178.197 239.144 177.513 238.196 177.513 237.308C177.513 235.556 179.721 235.496 180.657 235.328C181.473 235.184 181.737 234.956 181.737 234.44C181.737 233.924 181.245 233.552 180.357 233.552C179.601 233.552 179.037 233.996 178.893 234.668H177.813ZM178.581 237.308C178.581 237.896 179.121 238.268 179.877 238.268C180.825 238.268 181.761 237.656 181.761 236.12L181.749 235.256C181.629 235.664 181.365 236.024 180.021 236.264C179.121 236.42 178.581 236.684 178.581 237.308ZM187.317 232.652C189.069 232.652 190.149 233.96 190.149 235.88C190.149 237.8 189.069 239.144 187.317 239.144C186.189 239.144 185.409 238.4 185.181 237.764H185.169V241.4H184.089V232.796H185.169V234.056H185.181C185.409 233.408 186.189 232.652 187.317 232.652ZM185.133 235.88C185.133 237.104 185.757 238.22 187.101 238.22C188.409 238.22 189.069 237.224 189.069 235.88C189.069 234.536 188.373 233.564 187.101 233.564C185.757 233.564 185.133 234.668 185.133 235.88ZM191.044 234.668C191.176 233.768 191.932 232.64 193.552 232.64C195.832 232.64 196.048 234.116 196.048 235.076V237.74C196.048 238.208 196.096 238.7 196.144 239H194.992C194.968 238.7 194.968 238.448 194.968 238.1V237.86H194.956C194.812 238.34 194.296 239.144 192.916 239.144C191.428 239.144 190.744 238.196 190.744 237.308C190.744 235.556 192.952 235.496 193.888 235.328C194.704 235.184 194.968 234.956 194.968 234.44C194.968 233.924 194.476 233.552 193.588 233.552C192.832 233.552 192.268 233.996 192.124 234.668H191.044ZM191.812 237.308C191.812 237.896 192.352 238.268 193.108 238.268C194.056 238.268 194.992 237.656 194.992 236.12L194.98 235.256C194.86 235.664 194.596 236.024 193.252 236.264C192.352 236.42 191.812 236.684 191.812 237.308ZM198.4 232.796V234.044C198.712 233.132 199.312 232.772 200.248 232.772V233.804C200.2 233.804 200.008 233.816 199.852 233.84C199.132 233.948 198.4 234.272 198.4 236.072V239H197.32V232.796H198.4ZM202.607 237.26C202.607 237.812 202.919 238.112 203.399 238.112H203.831V239H203.291C202.091 239 201.551 238.292 201.551 237.332V233.684H200.627V232.796H201.551V231.344L202.607 230.864V232.796H203.795V233.684H202.607V237.26ZM204.691 232.856C204.691 231.284 205.771 230.228 207.307 230.228C208.843 230.228 209.839 231.224 209.839 232.628C209.839 233.624 209.299 234.164 208.807 234.68C208.315 235.184 207.787 235.676 207.787 236.444V236.744H206.707V236.348C206.707 235.34 207.247 234.788 207.775 234.284C208.267 233.804 208.759 233.372 208.759 232.628C208.759 231.752 208.207 231.14 207.307 231.14C206.407 231.14 205.771 231.812 205.771 232.856V233.048H204.691V232.856ZM206.659 239V237.56H207.823V239H206.659Z" fill="#404040"/>
</g>
<g filter="url(#filter10_d_2273_1184)">
<rect x="438" y="216" width="191" height="37" rx="4" fill="#F5F5F5" shape-rendering="crispEdges"/>
<rect x="438.5" y="216.5" width="190" height="36" rx="3.5" stroke="#EEEEEE" shape-rendering="crispEdges"/>
<g filter="url(#filter11_f_2273_1184)">
<path d="M454.12 230.432H455.32L456.82 236.84L457.036 237.788H457.048L457.264 236.84L458.716 230.432H460.276L461.68 236.84L461.896 237.8H461.908L462.136 236.84L463.696 230.432H464.896L463.216 236.84L462.652 239H461.116L459.508 231.572H459.496L458.284 236.84L457.792 239H456.268L455.728 236.84L454.12 230.432ZM465.544 239V230.432H466.624V233.96C466.948 233.252 467.524 232.652 468.484 232.652C470.116 232.652 470.728 233.72 470.728 234.98V239H469.648V235.088C469.648 233.996 469.18 233.564 468.34 233.564C467.428 233.564 466.624 234.332 466.624 235.952V239H465.544ZM471.96 234.668C472.092 233.768 472.848 232.64 474.468 232.64C476.748 232.64 476.964 234.116 476.964 235.076V237.74C476.964 238.208 477.012 238.7 477.06 239H475.908C475.884 238.7 475.884 238.448 475.884 238.1V237.86H475.872C475.728 238.34 475.212 239.144 473.832 239.144C472.344 239.144 471.66 238.196 471.66 237.308C471.66 235.556 473.868 235.496 474.804 235.328C475.62 235.184 475.884 234.956 475.884 234.44C475.884 233.924 475.392 233.552 474.504 233.552C473.748 233.552 473.184 233.996 473.04 234.668H471.96ZM472.728 237.308C472.728 237.896 473.268 238.268 474.024 238.268C474.972 238.268 475.908 237.656 475.908 236.12L475.896 235.256C475.776 235.664 475.512 236.024 474.168 236.264C473.268 236.42 472.728 236.684 472.728 237.308ZM479.544 237.26C479.544 237.812 479.856 238.112 480.336 238.112H480.768V239H480.228C479.028 239 478.488 238.292 478.488 237.332V233.684H477.564V232.796H478.488V231.344L479.544 230.864V232.796H480.732V233.684H479.544V237.26ZM484.083 234.668C484.215 233.768 484.971 232.64 486.591 232.64C488.871 232.64 489.087 234.116 489.087 235.076V237.74C489.087 238.208 489.135 238.7 489.183 239H488.031C488.007 238.7 488.007 238.448 488.007 238.1V237.86H487.995C487.851 238.34 487.335 239.144 485.955 239.144C484.467 239.144 483.783 238.196 483.783 237.308C483.783 235.556 485.991 235.496 486.927 235.328C487.743 235.184 488.007 234.956 488.007 234.44C488.007 233.924 487.515 233.552 486.627 233.552C485.871 233.552 485.307 233.996 485.163 234.668H484.083ZM484.851 237.308C484.851 237.896 485.391 238.268 486.147 238.268C487.095 238.268 488.031 237.656 488.031 236.12L488.019 235.256C487.899 235.664 487.635 236.024 486.291 236.264C485.391 236.42 484.851 236.684 484.851 237.308ZM491.439 232.796V234.044C491.751 233.132 492.351 232.772 493.287 232.772V233.804C493.239 233.804 493.047 233.816 492.891 233.84C492.171 233.948 491.439 234.272 491.439 236.072V239H490.359V232.796H491.439ZM499.469 237.152C499.121 238.472 498.077 239.144 496.697 239.144C494.861 239.144 493.649 237.812 493.649 235.868C493.649 233.996 494.921 232.652 496.673 232.652C498.857 232.652 499.541 234.404 499.565 236V236.192H494.693C494.777 237.488 495.569 238.244 496.673 238.244C497.501 238.244 498.197 237.92 498.413 237.152H499.469ZM494.705 235.328H498.473C498.377 234.248 497.777 233.54 496.673 233.54C495.557 233.54 494.849 234.26 494.705 235.328ZM503.443 232.796L505.411 237.932H505.423L507.187 232.796H508.339L505.531 240.2C505.255 240.944 504.799 241.4 503.959 241.4H503.119V240.488H503.803C504.403 240.488 504.499 240.152 504.679 239.708L504.895 239.168C504.031 237.044 503.155 234.92 502.291 232.796H503.443ZM511.541 239.144C509.657 239.144 508.433 237.728 508.433 235.904C508.433 234.08 509.657 232.652 511.541 232.652C513.425 232.652 514.649 234.08 514.649 235.904C514.649 237.728 513.425 239.144 511.541 239.144ZM509.513 235.904C509.513 237.176 510.329 238.232 511.541 238.232C512.753 238.232 513.569 237.176 513.569 235.904C513.569 234.62 512.753 233.564 511.541 233.564C510.329 233.564 509.513 234.62 509.513 235.904ZM515.514 236.816V232.796H516.594V236.708C516.594 237.8 517.062 238.232 517.902 238.232C518.814 238.232 519.618 237.464 519.618 235.844V232.796H520.698V239H519.618V237.836C519.294 238.544 518.718 239.144 517.758 239.144C516.126 239.144 515.514 238.076 515.514 236.816ZM523.07 232.796V234.044C523.382 233.132 523.982 232.772 524.918 232.772V233.804C524.87 233.804 524.678 233.816 524.522 233.84C523.802 233.948 523.07 234.272 523.07 236.072V239H521.99V232.796H523.07ZM533.745 237.104C533.397 238.4 532.497 239.144 530.997 239.144C529.065 239.144 527.817 237.776 527.817 235.904C527.817 234.032 529.065 232.652 530.997 232.652C532.581 232.652 533.433 233.528 533.697 234.656H532.617C532.389 234.092 531.969 233.54 530.961 233.54C529.701 233.54 528.897 234.572 528.897 235.904C528.897 237.224 529.701 238.244 530.961 238.244C531.861 238.244 532.377 237.836 532.653 237.104H533.745ZM537.458 239.144C535.574 239.144 534.35 237.728 534.35 235.904C534.35 234.08 535.574 232.652 537.458 232.652C539.342 232.652 540.566 234.08 540.566 235.904C540.566 237.728 539.342 239.144 537.458 239.144ZM535.43 235.904C535.43 237.176 536.246 238.232 537.458 238.232C538.67 238.232 539.486 237.176 539.486 235.904C539.486 234.62 538.67 233.564 537.458 233.564C536.246 233.564 535.43 234.62 535.43 235.904ZM541.479 239V232.796H542.559V233.852C542.679 233.288 543.291 232.652 544.131 232.652C545.139 232.652 545.715 233.036 546.003 233.888C546.387 233.048 546.951 232.652 547.779 232.652C549.291 232.652 549.879 233.72 549.879 234.98V239H548.799V235.088C548.799 233.996 548.355 233.564 547.635 233.564C546.843 233.564 546.207 234.332 546.207 235.952V239H545.127V235.088C545.127 233.996 544.827 233.564 543.987 233.564C542.883 233.564 542.559 234.656 542.559 235.952V239H541.479ZM554.357 232.652C556.109 232.652 557.189 233.96 557.189 235.88C557.189 237.8 556.109 239.144 554.357 239.144C553.229 239.144 552.449 238.4 552.221 237.764H552.209V241.4H551.129V232.796H552.209V234.056H552.221C552.449 233.408 553.229 232.652 554.357 232.652ZM552.173 235.88C552.173 237.104 552.797 238.22 554.141 238.22C555.449 238.22 556.109 237.224 556.109 235.88C556.109 234.536 555.413 233.564 554.141 233.564C552.797 233.564 552.173 234.668 552.173 235.88ZM558.084 234.668C558.216 233.768 558.972 232.64 560.592 232.64C562.872 232.64 563.088 234.116 563.088 235.076V237.74C563.088 238.208 563.136 238.7 563.184 239H562.032C562.008 238.7 562.008 238.448 562.008 238.1V237.86H561.996C561.852 238.34 561.336 239.144 559.956 239.144C558.468 239.144 557.784 238.196 557.784 237.308C557.784 235.556 559.992 235.496 560.928 235.328C561.744 235.184 562.008 234.956 562.008 234.44C562.008 233.924 561.516 233.552 560.628 233.552C559.872 233.552 559.308 233.996 559.164 234.668H558.084ZM558.852 237.308C558.852 237.896 559.392 238.268 560.148 238.268C561.096 238.268 562.032 237.656 562.032 236.12L562.02 235.256C561.9 235.664 561.636 236.024 560.292 236.264C559.392 236.42 558.852 236.684 558.852 237.308ZM564.36 239V232.796H565.44V233.96C565.764 233.252 566.34 232.652 567.3 232.652C568.932 232.652 569.544 233.72 569.544 234.98V239H568.464V235.088C568.464 233.996 567.996 233.564 567.156 233.564C566.244 233.564 565.44 234.332 565.44 235.952V239H564.36ZM570.999 232.796L572.967 237.932H572.979L574.743 232.796H575.895L573.087 240.2C572.811 240.944 572.355 241.4 571.515 241.4H570.675V240.488H571.359C571.959 240.488 572.055 240.152 572.235 239.708L572.451 239.168C571.587 237.044 570.711 234.92 569.847 232.796H570.999ZM583.553 232.796H584.633V238.52C584.633 240.356 583.289 241.376 581.753 241.376C580.217 241.376 579.017 240.608 578.885 239.264H579.965C580.085 240.152 580.769 240.464 581.753 240.464C582.737 240.464 583.553 239.924 583.553 238.52V237.776H583.541C583.277 238.544 582.665 239.144 581.453 239.144C579.677 239.144 578.573 237.74 578.573 235.88C578.573 234.032 579.677 232.652 581.453 232.652C582.665 232.652 583.313 233.336 583.541 233.948H583.553V232.796ZM579.653 235.88C579.653 237.104 580.265 238.22 581.621 238.22C583.145 238.22 583.589 236.864 583.589 235.88C583.589 234.908 582.953 233.564 581.621 233.564C580.301 233.564 579.653 234.668 579.653 235.88ZM588.648 239.144C586.764 239.144 585.54 237.728 585.54 235.904C585.54 234.08 586.764 232.652 588.648 232.652C590.532 232.652 591.756 234.08 591.756 235.904C591.756 237.728 590.532 239.144 588.648 239.144ZM586.62 235.904C586.62 237.176 587.436 238.232 588.648 238.232C589.86 238.232 590.676 237.176 590.676 235.904C590.676 234.62 589.86 233.564 588.648 233.564C587.436 233.564 586.62 234.62 586.62 235.904ZM592.656 234.668C592.788 233.768 593.544 232.64 595.164 232.64C597.444 232.64 597.66 234.116 597.66 235.076V237.74C597.66 238.208 597.708 238.7 597.756 239H596.604C596.58 238.7 596.58 238.448 596.58 238.1V237.86H596.568C596.424 238.34 595.908 239.144 594.528 239.144C593.04 239.144 592.356 238.196 592.356 237.308C592.356 235.556 594.564 235.496 595.5 235.328C596.316 235.184 596.58 234.956 596.58 234.44C596.58 233.924 596.088 233.552 595.2 233.552C594.444 233.552 593.88 233.996 593.736 234.668H592.656ZM593.424 237.308C593.424 237.896 593.964 238.268 594.72 238.268C595.668 238.268 596.604 237.656 596.604 236.12L596.592 235.256C596.472 235.664 596.208 236.024 594.864 236.264C593.964 236.42 593.424 236.684 593.424 237.308ZM598.932 230.432H600.012V239H598.932V230.432ZM604.725 234.668C604.653 233.864 603.981 233.564 603.357 233.564C602.769 233.564 602.181 233.9 602.181 234.428C602.181 234.908 602.661 235.184 603.201 235.316L604.017 235.52C604.953 235.748 605.901 236.192 605.901 237.224C605.901 238.544 604.521 239.144 603.441 239.144C602.397 239.144 601.029 238.664 600.921 237.128H602.001C602.145 237.92 602.637 238.232 603.477 238.232C604.089 238.232 604.821 238.016 604.821 237.296C604.821 236.768 604.305 236.588 603.717 236.444L602.853 236.228C601.929 236 601.101 235.436 601.101 234.476C601.101 233.312 602.301 232.652 603.393 232.652C604.605 232.652 605.673 233.3 605.793 234.668H604.725ZM606.327 232.856C606.327 231.284 607.407 230.228 608.943 230.228C610.479 230.228 611.475 231.224 611.475 232.628C611.475 233.624 610.935 234.164 610.443 234.68C609.951 235.184 609.423 235.676 609.423 236.444V236.744H608.343V236.348C608.343 235.34 608.883 234.788 609.411 234.284C609.903 233.804 610.395 233.372 610.395 232.628C610.395 231.752 609.843 231.14 608.943 231.14C608.043 231.14 607.407 231.812 607.407 232.856V233.048H606.327V232.856ZM608.295 239V237.56H609.459V239H608.295Z" fill="#404040"/>
</g>
</g>
<g filter="url(#filter12_d_2273_1184)">
<rect x="237" y="168" width="191" height="37" rx="4" fill="#292929" shape-rendering="crispEdges"/>
<rect x="237.5" y="168.5" width="190" height="36" rx="3.5" stroke="#494949" shape-rendering="crispEdges"/>
<path d="M253.12 182.432H254.32L255.82 188.84L256.036 189.788H256.048L256.264 188.84L257.716 182.432H259.276L260.68 188.84L260.896 189.8H260.908L261.136 188.84L262.696 182.432H263.896L262.216 188.84L261.652 191H260.116L258.508 183.572H258.496L257.284 188.84L256.792 191H255.268L254.728 188.84L253.12 182.432ZM264.544 191V182.432H265.624V185.96C265.948 185.252 266.524 184.652 267.484 184.652C269.116 184.652 269.728 185.72 269.728 186.98V191H268.648V187.088C268.648 185.996 268.18 185.564 267.34 185.564C266.428 185.564 265.624 186.332 265.624 187.952V191H264.544ZM270.96 186.668C271.092 185.768 271.848 184.64 273.468 184.64C275.748 184.64 275.964 186.116 275.964 187.076V189.74C275.964 190.208 276.012 190.7 276.06 191H274.908C274.884 190.7 274.884 190.448 274.884 190.1V189.86H274.872C274.728 190.34 274.212 191.144 272.832 191.144C271.344 191.144 270.66 190.196 270.66 189.308C270.66 187.556 272.868 187.496 273.804 187.328C274.62 187.184 274.884 186.956 274.884 186.44C274.884 185.924 274.392 185.552 273.504 185.552C272.748 185.552 272.184 185.996 272.04 186.668H270.96ZM271.728 189.308C271.728 189.896 272.268 190.268 273.024 190.268C273.972 190.268 274.908 189.656 274.908 188.12L274.896 187.256C274.776 187.664 274.512 188.024 273.168 188.264C272.268 188.42 271.728 188.684 271.728 189.308ZM278.544 189.26C278.544 189.812 278.856 190.112 279.336 190.112H279.768V191H279.228C278.028 191 277.488 190.292 277.488 189.332V185.684H276.564V184.796H277.488V183.344L278.544 182.864V184.796H279.732V185.684H278.544V189.26ZM283.083 186.668C283.215 185.768 283.971 184.64 285.591 184.64C287.871 184.64 288.087 186.116 288.087 187.076V189.74C288.087 190.208 288.135 190.7 288.183 191H287.031C287.007 190.7 287.007 190.448 287.007 190.1V189.86H286.995C286.851 190.34 286.335 191.144 284.955 191.144C283.467 191.144 282.783 190.196 282.783 189.308C282.783 187.556 284.991 187.496 285.927 187.328C286.743 187.184 287.007 186.956 287.007 186.44C287.007 185.924 286.515 185.552 285.627 185.552C284.871 185.552 284.307 185.996 284.163 186.668H283.083ZM283.851 189.308C283.851 189.896 284.391 190.268 285.147 190.268C286.095 190.268 287.031 189.656 287.031 188.12L287.019 187.256C286.899 187.664 286.635 188.024 285.291 188.264C284.391 188.42 283.851 188.684 283.851 189.308ZM290.439 184.796V186.044C290.751 185.132 291.351 184.772 292.287 184.772V185.804C292.239 185.804 292.047 185.816 291.891 185.84C291.171 185.948 290.439 186.272 290.439 188.072V191H289.359V184.796H290.439ZM298.469 189.152C298.121 190.472 297.077 191.144 295.697 191.144C293.861 191.144 292.649 189.812 292.649 187.868C292.649 185.996 293.921 184.652 295.673 184.652C297.857 184.652 298.541 186.404 298.565 188V188.192H293.693C293.777 189.488 294.569 190.244 295.673 190.244C296.501 190.244 297.197 189.92 297.413 189.152H298.469ZM293.705 187.328H297.473C297.377 186.248 296.777 185.54 295.673 185.54C294.557 185.54 293.849 186.26 293.705 187.328ZM302.443 184.796L304.411 189.932H304.423L306.187 184.796H307.339L304.531 192.2C304.255 192.944 303.799 193.4 302.959 193.4H302.119V192.488H302.803C303.403 192.488 303.499 192.152 303.679 191.708L303.895 191.168C303.031 189.044 302.155 186.92 301.291 184.796H302.443ZM310.541 191.144C308.657 191.144 307.433 189.728 307.433 187.904C307.433 186.08 308.657 184.652 310.541 184.652C312.425 184.652 313.649 186.08 313.649 187.904C313.649 189.728 312.425 191.144 310.541 191.144ZM308.513 187.904C308.513 189.176 309.329 190.232 310.541 190.232C311.753 190.232 312.569 189.176 312.569 187.904C312.569 186.62 311.753 185.564 310.541 185.564C309.329 185.564 308.513 186.62 308.513 187.904ZM314.514 188.816V184.796H315.594V188.708C315.594 189.8 316.062 190.232 316.902 190.232C317.814 190.232 318.618 189.464 318.618 187.844V184.796H319.698V191H318.618V189.836C318.294 190.544 317.718 191.144 316.758 191.144C315.126 191.144 314.514 190.076 314.514 188.816ZM322.07 184.796V186.044C322.382 185.132 322.982 184.772 323.918 184.772V185.804C323.87 185.804 323.678 185.816 323.522 185.84C322.802 185.948 322.07 186.272 322.07 188.072V191H320.99V184.796H322.07ZM332.745 189.104C332.397 190.4 331.497 191.144 329.997 191.144C328.065 191.144 326.817 189.776 326.817 187.904C326.817 186.032 328.065 184.652 329.997 184.652C331.581 184.652 332.433 185.528 332.697 186.656H331.617C331.389 186.092 330.969 185.54 329.961 185.54C328.701 185.54 327.897 186.572 327.897 187.904C327.897 189.224 328.701 190.244 329.961 190.244C330.861 190.244 331.377 189.836 331.653 189.104H332.745ZM336.458 191.144C334.574 191.144 333.35 189.728 333.35 187.904C333.35 186.08 334.574 184.652 336.458 184.652C338.342 184.652 339.566 186.08 339.566 187.904C339.566 189.728 338.342 191.144 336.458 191.144ZM334.43 187.904C334.43 189.176 335.246 190.232 336.458 190.232C337.67 190.232 338.486 189.176 338.486 187.904C338.486 186.62 337.67 185.564 336.458 185.564C335.246 185.564 334.43 186.62 334.43 187.904ZM340.479 191V184.796H341.559V185.852C341.679 185.288 342.291 184.652 343.131 184.652C344.139 184.652 344.715 185.036 345.003 185.888C345.387 185.048 345.951 184.652 346.779 184.652C348.291 184.652 348.879 185.72 348.879 186.98V191H347.799V187.088C347.799 185.996 347.355 185.564 346.635 185.564C345.843 185.564 345.207 186.332 345.207 187.952V191H344.127V187.088C344.127 185.996 343.827 185.564 342.987 185.564C341.883 185.564 341.559 186.656 341.559 187.952V191H340.479ZM353.357 184.652C355.109 184.652 356.189 185.96 356.189 187.88C356.189 189.8 355.109 191.144 353.357 191.144C352.229 191.144 351.449 190.4 351.221 189.764H351.209V193.4H350.129V184.796H351.209V186.056H351.221C351.449 185.408 352.229 184.652 353.357 184.652ZM351.173 187.88C351.173 189.104 351.797 190.22 353.141 190.22C354.449 190.22 355.109 189.224 355.109 187.88C355.109 186.536 354.413 185.564 353.141 185.564C351.797 185.564 351.173 186.668 351.173 187.88ZM357.084 186.668C357.216 185.768 357.972 184.64 359.592 184.64C361.872 184.64 362.088 186.116 362.088 187.076V189.74C362.088 190.208 362.136 190.7 362.184 191H361.032C361.008 190.7 361.008 190.448 361.008 190.1V189.86H360.996C360.852 190.34 360.336 191.144 358.956 191.144C357.468 191.144 356.784 190.196 356.784 189.308C356.784 187.556 358.992 187.496 359.928 187.328C360.744 187.184 361.008 186.956 361.008 186.44C361.008 185.924 360.516 185.552 359.628 185.552C358.872 185.552 358.308 185.996 358.164 186.668H357.084ZM357.852 189.308C357.852 189.896 358.392 190.268 359.148 190.268C360.096 190.268 361.032 189.656 361.032 188.12L361.02 187.256C360.9 187.664 360.636 188.024 359.292 188.264C358.392 188.42 357.852 188.684 357.852 189.308ZM363.36 191V184.796H364.44V185.96C364.764 185.252 365.34 184.652 366.3 184.652C367.932 184.652 368.544 185.72 368.544 186.98V191H367.464V187.088C367.464 185.996 366.996 185.564 366.156 185.564C365.244 185.564 364.44 186.332 364.44 187.952V191H363.36ZM369.999 184.796L371.967 189.932H371.979L373.743 184.796H374.895L372.087 192.2C371.811 192.944 371.355 193.4 370.515 193.4H369.675V192.488H370.359C370.959 192.488 371.055 192.152 371.235 191.708L371.451 191.168C370.587 189.044 369.711 186.92 368.847 184.796H369.999ZM382.553 184.796H383.633V190.52C383.633 192.356 382.289 193.376 380.753 193.376C379.217 193.376 378.017 192.608 377.885 191.264H378.965C379.085 192.152 379.769 192.464 380.753 192.464C381.737 192.464 382.553 191.924 382.553 190.52V189.776H382.541C382.277 190.544 381.665 191.144 380.453 191.144C378.677 191.144 377.573 189.74 377.573 187.88C377.573 186.032 378.677 184.652 380.453 184.652C381.665 184.652 382.313 185.336 382.541 185.948H382.553V184.796ZM378.653 187.88C378.653 189.104 379.265 190.22 380.621 190.22C382.145 190.22 382.589 188.864 382.589 187.88C382.589 186.908 381.953 185.564 380.621 185.564C379.301 185.564 378.653 186.668 378.653 187.88ZM387.648 191.144C385.764 191.144 384.54 189.728 384.54 187.904C384.54 186.08 385.764 184.652 387.648 184.652C389.532 184.652 390.756 186.08 390.756 187.904C390.756 189.728 389.532 191.144 387.648 191.144ZM385.62 187.904C385.62 189.176 386.436 190.232 387.648 190.232C388.86 190.232 389.676 189.176 389.676 187.904C389.676 186.62 388.86 185.564 387.648 185.564C386.436 185.564 385.62 186.62 385.62 187.904ZM391.656 186.668C391.788 185.768 392.544 184.64 394.164 184.64C396.444 184.64 396.66 186.116 396.66 187.076V189.74C396.66 190.208 396.708 190.7 396.756 191H395.604C395.58 190.7 395.58 190.448 395.58 190.1V189.86H395.568C395.424 190.34 394.908 191.144 393.528 191.144C392.04 191.144 391.356 190.196 391.356 189.308C391.356 187.556 393.564 187.496 394.5 187.328C395.316 187.184 395.58 186.956 395.58 186.44C395.58 185.924 395.088 185.552 394.2 185.552C393.444 185.552 392.88 185.996 392.736 186.668H391.656ZM392.424 189.308C392.424 189.896 392.964 190.268 393.72 190.268C394.668 190.268 395.604 189.656 395.604 188.12L395.592 187.256C395.472 187.664 395.208 188.024 393.864 188.264C392.964 188.42 392.424 188.684 392.424 189.308ZM397.932 182.432H399.012V191H397.932V182.432ZM403.725 186.668C403.653 185.864 402.981 185.564 402.357 185.564C401.769 185.564 401.181 185.9 401.181 186.428C401.181 186.908 401.661 187.184 402.201 187.316L403.017 187.52C403.953 187.748 404.901 188.192 404.901 189.224C404.901 190.544 403.521 191.144 402.441 191.144C401.397 191.144 400.029 190.664 399.921 189.128H401.001C401.145 189.92 401.637 190.232 402.477 190.232C403.089 190.232 403.821 190.016 403.821 189.296C403.821 188.768 403.305 188.588 402.717 188.444L401.853 188.228C400.929 188 400.101 187.436 400.101 186.476C400.101 185.312 401.301 184.652 402.393 184.652C403.605 184.652 404.673 185.3 404.793 186.668H403.725ZM405.327 184.856C405.327 183.284 406.407 182.228 407.943 182.228C409.479 182.228 410.475 183.224 410.475 184.628C410.475 185.624 409.935 186.164 409.443 186.68C408.951 187.184 408.423 187.676 408.423 188.444V188.744H407.343V188.348C407.343 187.34 407.883 186.788 408.411 186.284C408.903 185.804 409.395 185.372 409.395 184.628C409.395 183.752 408.843 183.14 407.943 183.14C407.043 183.14 406.407 183.812 406.407 184.856V185.048H405.327V184.856ZM407.295 191V189.56H408.459V191H407.295Z" fill="white"/>
</g>
<defs>
<filter id="filter0_d_2273_1184" x="96" y="67" width="184" height="49" filterUnits="userSpaceOnUse" color-interpolation-filters="sRGB">
<feFlood flood-opacity="0" result="BackgroundImageFix"/>
<feColorMatrix in="SourceAlpha" type="matrix" values="0 0 0 0 0 0 0 0 0 0 0 0 0 0 0 0 0 0 127 0" result="hardAlpha"/>
<feOffset dy="2"/>
<feGaussianBlur stdDeviation="3"/>
<feComposite in2="hardAlpha" operator="out"/>
<feColorMatrix type="matrix" values="0 0 0 0 0 0 0 0 0 0 0 0 0 0 0 0 0 0 0.05 0"/>
<feBlend mode="normal" in2="BackgroundImageFix" result="effect1_dropShadow_2273_1184"/>
<feBlend mode="normal" in="SourceGraphic" in2="effect1_dropShadow_2273_1184" result="shape"/>
</filter>
<filter id="filter1_d_2273_1184" x="49" y="115" width="184" height="49" filterUnits="userSpaceOnUse" color-interpolation-filters="sRGB">
<feFlood flood-opacity="0" result="BackgroundImageFix"/>
<feColorMatrix in="SourceAlpha" type="matrix" values="0 0 0 0 0 0 0 0 0 0 0 0 0 0 0 0 0 0 127 0" result="hardAlpha"/>
<feOffset dy="2"/>
<feGaussianBlur stdDeviation="3"/>
<feComposite in2="hardAlpha" operator="out"/>
<feColorMatrix type="matrix" values="0 0 0 0 0 0 0 0 0 0 0 0 0 0 0 0 0 0 0.05 0"/>
<feBlend mode="normal" in2="BackgroundImageFix" result="effect1_dropShadow_2273_1184"/>
<feBlend mode="normal" in="SourceGraphic" in2="effect1_dropShadow_2273_1184" result="shape"/>
</filter>
<filter id="filter2_f_2273_1184" x="63.12" y="125.227" width="154.956" height="27.1719" filterUnits="userSpaceOnUse" color-interpolation-filters="sRGB">
<feFlood flood-opacity="0" result="BackgroundImageFix"/>
<feBlend mode="normal" in="SourceGraphic" in2="BackgroundImageFix" result="shape"/>
<feGaussianBlur stdDeviation="4" result="effect1_foregroundBlur_2273_1184"/>
</filter>
<filter id="filter3_d_2273_1184" x="432" y="115" width="184" height="49" filterUnits="userSpaceOnUse" color-interpolation-filters="sRGB">
<feFlood flood-opacity="0" result="BackgroundImageFix"/>
<feColorMatrix in="SourceAlpha" type="matrix" values="0 0 0 0 0 0 0 0 0 0 0 0 0 0 0 0 0 0 127 0" result="hardAlpha"/>
<feOffset dy="2"/>
<feGaussianBlur stdDeviation="3"/>
<feComposite in2="hardAlpha" operator="out"/>
<feColorMatrix type="matrix" values="0 0 0 0 0 0 0 0 0 0 0 0 0 0 0 0 0 0 0.05 0"/>
<feBlend mode="normal" in2="BackgroundImageFix" result="effect1_dropShadow_2273_1184"/>
<feBlend mode="normal" in="SourceGraphic" in2="effect1_dropShadow_2273_1184" result="shape"/>
</filter>
<filter id="filter4_f_2273_1184" x="446.12" y="125.227" width="154.956" height="27.1719" filterUnits="userSpaceOnUse" color-interpolation-filters="sRGB">
<feFlood flood-opacity="0" result="BackgroundImageFix"/>
<feBlend mode="normal" in="SourceGraphic" in2="BackgroundImageFix" result="shape"/>
<feGaussianBlur stdDeviation="4" result="effect1_foregroundBlur_2273_1184"/>
</filter>
<filter id="filter5_d_2273_1184" x="385" y="261" width="252" height="49" filterUnits="userSpaceOnUse" color-interpolation-filters="sRGB">
<feFlood flood-opacity="0" result="BackgroundImageFix"/>
<feColorMatrix in="SourceAlpha" type="matrix" values="0 0 0 0 0 0 0 0 0 0 0 0 0 0 0 0 0 0 127 0" result="hardAlpha"/>
<feOffset dy="2"/>
<feGaussianBlur stdDeviation="3"/>
<feComposite in2="hardAlpha" operator="out"/>
<feColorMatrix type="matrix" values="0 0 0 0 0 0 0 0 0 0 0 0 0 0 0 0 0 0 0.05 0"/>
<feBlend mode="normal" in2="BackgroundImageFix" result="effect1_dropShadow_2273_1184"/>
<feBlend mode="normal" in="SourceGraphic" in2="effect1_dropShadow_2273_1184" result="shape"/>
</filter>
<filter id="filter6_d_2273_1184" x="409" y="67" width="203" height="49" filterUnits="userSpaceOnUse" color-interpolation-filters="sRGB">
<feFlood flood-opacity="0" result="BackgroundImageFix"/>
<feColorMatrix in="SourceAlpha" type="matrix" values="0 0 0 0 0 0 0 0 0 0 0 0 0 0 0 0 0 0 127 0" result="hardAlpha"/>
<feOffset dy="2"/>
<feGaussianBlur stdDeviation="3"/>
<feComposite in2="hardAlpha" operator="out"/>
<feColorMatrix type="matrix" values="0 0 0 0 0 0 0 0 0 0 0 0 0 0 0 0 0 0 0.05 0"/>
<feBlend mode="normal" in2="BackgroundImageFix" result="effect1_dropShadow_2273_1184"/>
<feBlend mode="normal" in="SourceGraphic" in2="effect1_dropShadow_2273_1184" result="shape"/>
</filter>
<filter id="filter7_d_2273_1184" x="96" y="261" width="203" height="49" filterUnits="userSpaceOnUse" color-interpolation-filters="sRGB">
<feFlood flood-opacity="0" result="BackgroundImageFix"/>
<feColorMatrix in="SourceAlpha" type="matrix" values="0 0 0 0 0 0 0 0 0 0 0 0 0 0 0 0 0 0 127 0" result="hardAlpha"/>
<feOffset dy="2"/>
<feGaussianBlur stdDeviation="3"/>
<feComposite in2="hardAlpha" operator="out"/>
<feColorMatrix type="matrix" values="0 0 0 0 0 0 0 0 0 0 0 0 0 0 0 0 0 0 0.05 0"/>
<feBlend mode="normal" in2="BackgroundImageFix" result="effect1_dropShadow_2273_1184"/>
<feBlend mode="normal" in="SourceGraphic" in2="effect1_dropShadow_2273_1184" result="shape"/>
</filter>
<filter id="filter8_f_2273_1184" x="110.12" y="271.227" width="173.355" height="27.1719" filterUnits="userSpaceOnUse" color-interpolation-filters="sRGB">
<feFlood flood-opacity="0" result="BackgroundImageFix"/>
<feBlend mode="normal" in="SourceGraphic" in2="BackgroundImageFix" result="shape"/>
<feGaussianBlur stdDeviation="4" result="effect1_foregroundBlur_2273_1184"/>
</filter>
<filter id="filter9_d_2273_1184" x="9" y="212" width="224" height="49" filterUnits="userSpaceOnUse" color-interpolation-filters="sRGB">
<feFlood flood-opacity="0" result="BackgroundImageFix"/>
<feColorMatrix in="SourceAlpha" type="matrix" values="0 0 0 0 0 0 0 0 0 0 0 0 0 0 0 0 0 0 127 0" result="hardAlpha"/>
<feOffset dy="2"/>
<feGaussianBlur stdDeviation="3"/>
<feComposite in2="hardAlpha" operator="out"/>
<feColorMatrix type="matrix" values="0 0 0 0 0 0 0 0 0 0 0 0 0 0 0 0 0 0 0.05 0"/>
<feBlend mode="normal" in2="BackgroundImageFix" result="effect1_dropShadow_2273_1184"/>
<feBlend mode="normal" in="SourceGraphic" in2="effect1_dropShadow_2273_1184" result="shape"/>
</filter>
<filter id="filter10_d_2273_1184" x="432" y="212" width="203" height="49" filterUnits="userSpaceOnUse" color-interpolation-filters="sRGB">
<feFlood flood-opacity="0" result="BackgroundImageFix"/>
<feColorMatrix in="SourceAlpha" type="matrix" values="0 0 0 0 0 0 0 0 0 0 0 0 0 0 0 0 0 0 127 0" result="hardAlpha"/>
<feOffset dy="2"/>
<feGaussianBlur stdDeviation="3"/>
<feComposite in2="hardAlpha" operator="out"/>
<feColorMatrix type="matrix" values="0 0 0 0 0 0 0 0 0 0 0 0 0 0 0 0 0 0 0.05 0"/>
<feBlend mode="normal" in2="BackgroundImageFix" result="effect1_dropShadow_2273_1184"/>
<feBlend mode="normal" in="SourceGraphic" in2="effect1_dropShadow_2273_1184" result="shape"/>
</filter>
<filter id="filter11_f_2273_1184" x="446.12" y="222.227" width="173.355" height="27.1719" filterUnits="userSpaceOnUse" color-interpolation-filters="sRGB">
<feFlood flood-opacity="0" result="BackgroundImageFix"/>
<feBlend mode="normal" in="SourceGraphic" in2="BackgroundImageFix" result="shape"/>
<feGaussianBlur stdDeviation="4" result="effect1_foregroundBlur_2273_1184"/>
</filter>
<filter id="filter12_d_2273_1184" x="231" y="164" width="203" height="49" filterUnits="userSpaceOnUse" color-interpolation-filters="sRGB">
<feFlood flood-opacity="0" result="BackgroundImageFix"/>
<feColorMatrix in="SourceAlpha" type="matrix" values="0 0 0 0 0 0 0 0 0 0 0 0 0 0 0 0 0 0 127 0" result="hardAlpha"/>
<feOffset dy="2"/>
<feGaussianBlur stdDeviation="3"/>
<feComposite in2="hardAlpha" operator="out"/>
<feColorMatrix type="matrix" values="0 0 0 0 0 0 0 0 0 0 0 0 0 0 0 0 0 0 0.05 0"/>
<feBlend mode="normal" in2="BackgroundImageFix" result="effect1_dropShadow_2273_1184"/>
<feBlend mode="normal" in="SourceGraphic" in2="effect1_dropShadow_2273_1184" result="shape"/>
</filter>
</defs>
</svg>
