<svg width="16" height="16" viewBox="0 0 16 16" fill="none" xmlns="http://www.w3.org/2000/svg">
<path fill-rule="evenodd" clip-rule="evenodd" d="M4.27754 7.66797H1.3333C1.14921 7.66797 0.999969 7.5187 0.999969 7.33464V4.0013C0.999969 3.81721 1.14921 3.66797 1.3333 3.66797H4.66664C4.85073 3.66797 4.99997 3.81721 4.99997 4.0013V6.72377L6.57188 3.84192C6.63029 3.73483 6.74254 3.6682 6.86454 3.6682L9.33468 3.66797C9.53068 3.66797 9.68441 3.83628 9.66661 4.03148L9.38248 7.15717L11.0349 3.85223C11.0914 3.7393 11.2068 3.66797 11.3331 3.66797H14.6663C14.9141 3.66797 15.0753 3.92874 14.9644 4.15038L10.9644 12.1504C10.9079 12.2633 10.7925 12.3346 10.6663 12.3346H7.33308C7.08528 12.3346 6.92414 12.0738 7.03494 11.8522L8.91414 8.09384C7.23374 10.6333 4.39619 12.2212 1.33326 12.329C1.14928 12.3355 0.999969 12.1856 0.999969 12.0015V9.27477C0.999969 9.1159 1.11241 8.97964 1.26739 8.94457C2.53621 8.65777 3.59203 8.17977 4.27754 7.66797Z" fill="white"/>
</svg>
